<?xml version="1.0" standalone="no"?>
<!DOCTYPE svg PUBLIC "-//W3C//DTD SVG 1.1//EN" "http://www.w3.org/Graphics/SVG/1.1/DTD/svg11.dtd" >
<svg xmlns="http://www.w3.org/2000/svg" xmlns:xlink="http://www.w3.org/1999/xlink" version="1.1">
<metadata></metadata>
<defs>
<font id="exo_2.0light" horiz-adv-x="1363" >
<font-face units-per-em="2048" ascent="1638" descent="-410" />
<missing-glyph horiz-adv-x="462" />
<glyph unicode="&#xfb01;" horiz-adv-x="1200" d="M63 887v94l179 10v176q0 150 64.5 224.5t213.5 74.5q126 0 221 -12v-96h-176q-106 0 -149 -45.5t-43 -157.5v-164h647v-991h-129v887h-518v-887h-131v887h-179zM881 1247v119q0 43 43 43h61q43 0 43 -43v-119q0 -43 -43 -43h-61q-43 0 -43 43z" />
<glyph unicode="&#xfb02;" horiz-adv-x="1331" d="M63 887v94l179 10v176q0 150 64.5 224.5t213.5 74.5q383 0 527 -20v-1213q0 -71 37.5 -108t107.5 -37h104l15 -84q-23 -8 -75 -14t-89 -6q-107 0 -168 59.5t-61 165.5v1149h-353q-106 2 -149 -43.5t-43 -159.5v-164h315v-104h-315v-887h-131v887h-179z" />
<glyph horiz-adv-x="0" />
<glyph horiz-adv-x="682" />
<glyph unicode=" "  horiz-adv-x="462" />
<glyph unicode="&#x09;" horiz-adv-x="462" />
<glyph unicode="&#xa0;" horiz-adv-x="462" />
<glyph unicode="!" horiz-adv-x="544" d="M205 51v117q0 28 11.5 39.5t39.5 11.5h35q28 0 39.5 -11.5t11.5 -39.5v-117q0 -28 -11.5 -39.5t-39.5 -11.5h-35q-28 0 -39.5 11.5t-11.5 39.5zM207 772v651h131v-651l-12 -346h-105z" />
<glyph unicode="&#x22;" horiz-adv-x="704" d="M158 1413h108l-8 -434h-92zM440 1413h109l-10 -434h-90z" />
<glyph unicode="#" horiz-adv-x="1388" d="M102 446l17 89h235l70 399h-236l17 88h233l70 391h106l-67 -391h405l70 391h106l-67 -391h225l-16 -88h-223l-70 -399h223l-16 -89h-223l-78 -446h-107l76 446h-406l-77 -446h-107l76 446h-236zM463 535h405l70 399h-406z" />
<glyph unicode="$" horiz-adv-x="1150" d="M125 1069q0 71 9.5 125t25.5 93.5t45.5 66.5t62.5 43.5t83 25.5t100.5 11.5t121.5 1.5h25l14 204h74l-12 -206q171 -7 305 -31l-10 -98q-172 7 -303 10l-35 -545l121 -27q156 -32 220 -122.5t64 -264.5q0 -82 -11.5 -142.5t-38 -102.5t-61 -68.5t-89.5 -41t-113.5 -19.5 t-142.5 -5h-13l-16 -243h-76l19 243q-158 3 -347 31l11 105q266 -13 344 -13l37 557l-136 29q-149 30 -213.5 122t-64.5 261zM260 1065q0 -127 45 -183t152 -77l98 -21l35 533h-12q-49 0 -78 -1t-65 -4t-56 -10t-43 -19.5t-34.5 -30.5t-22.5 -44.5t-15 -61.5t-4 -81z M578 100h6q76 1 124.5 6.5t88.5 21t61 45t32 74t11 111.5q0 134 -44.5 189t-154.5 76l-88 18z" />
<glyph unicode="%" horiz-adv-x="1822" d="M106 1020q0 225 72 321.5t250 96.5t250 -96.5t72 -321.5t-72 -321.5t-250 -96.5t-250 96.5t-72 321.5zM209 1020q0 -184 47.5 -259t169.5 -75q124 0 171.5 75t47.5 259q0 183 -47.5 258.5t-171.5 75.5q-121 0 -169 -76t-48 -258zM389 0l940 1413h98l-940 -1413h-98z M1073 401q0 225 72.5 322.5t249.5 97.5t249 -97.5t72 -322.5t-71.5 -321t-249.5 -96t-250 96.5t-72 320.5zM1178 401q-2 -183 45.5 -258t169.5 -75q123 0 171 74.5t48 258.5t-48 259t-171 75q-122 0 -169.5 -75.5t-45.5 -258.5z" />
<glyph unicode="&#x26;" horiz-adv-x="1589" d="M147 356q0 172 64 266t215 107v8q-128 10 -183 91t-55 239q0 55 6.5 99t17.5 79.5t31.5 62t43.5 46.5t58 34t71 22.5t86.5 13.5t100 6.5t116.5 1.5q177 0 325 -19l-16 -100q-73 6 -313 6q-95 0 -154 -5.5t-109 -21t-75.5 -45.5t-39 -77t-13.5 -119q0 -157 65.5 -212 t239.5 -55h415l15 283h106v-283h269l-2 -104h-267v-436q0 -76 35 -111t109 -35h161l15 -94q-98 -20 -201 -20q-108 0 -168.5 48t-71.5 138q-94 -103 -207 -145.5t-280 -42.5q-225 0 -317.5 81.5t-92.5 292.5zM287 377q0 -159 64.5 -219t232.5 -60q155 0 263.5 45t194.5 142 v395h-419q-188 0 -262 -64.5t-74 -238.5z" />
<glyph unicode="'" horiz-adv-x="421" d="M158 1413h108l-8 -434h-92z" />
<glyph unicode="(" horiz-adv-x="733" d="M121 639q0 394 126 631.5t394 347.5l16 -68q-210 -105 -308.5 -328t-98.5 -581q0 -352 98.5 -576t308.5 -335l-16 -68q-268 112 -394 349t-126 628z" />
<glyph unicode=")" horiz-adv-x="733" d="M76 -270q210 111 308.5 335t98.5 576q0 358 -98.5 581t-308.5 328l16 68q268 -110 394 -347.5t126 -631.5q0 -391 -126 -628t-394 -349z" />
<glyph unicode="*" horiz-adv-x="923" d="M123 1145l29 80l245 -92l-2 -37l-16 -25zM229 829l201 263l-10 321h86l-14 -321l200 -265l-67 -51l-164 256l-162 -254zM526 1096v37l248 90l27 -82l-256 -70z" />
<glyph unicode="+" horiz-adv-x="1130" d="M123 561v101h389v368h102v-368h392v-101h-392v-371h-100v371h-391z" />
<glyph unicode="," horiz-adv-x="452" d="M156 43v125q2 28 13.5 39.5t37.5 11.5h41q27 0 38 -11.5t11 -39.5v-131q-3 -165 -59 -295l-62 18q17 139 17 240q-18 0 -28 11.5t-9 31.5z" />
<glyph unicode="-" horiz-adv-x="944" d="M158 465v102h628v-102h-628z" />
<glyph unicode="." horiz-adv-x="452" d="M154 51v117q0 28 11.5 39.5t37.5 11.5h45q28 0 39.5 -11.5t11.5 -39.5v-117q0 -28 -11.5 -39.5t-39.5 -11.5h-45q-26 0 -37.5 11.5t-11.5 39.5z" />
<glyph unicode="/" horiz-adv-x="1042" d="M63 -129l805 1542h111l-805 -1542h-111z" />
<glyph unicode="0" horiz-adv-x="1220" d="M141 707q0 390 105.5 560.5t363.5 170.5t364.5 -171t106.5 -560t-106.5 -560.5t-364.5 -171.5t-363.5 171t-105.5 561zM272 707q0 -331 75 -473t263 -142q189 0 263.5 141.5t74.5 473.5t-74.5 473t-263.5 141q-188 0 -263 -141.5t-75 -472.5z" />
<glyph unicode="1" horiz-adv-x="800" d="M57 1266l369 147h135v-1413h-135v1171q0 64 8 113l-358 -115z" />
<glyph unicode="2" horiz-adv-x="1146" d="M119 0v82q0 38 20 61l439 500q140 158 202.5 274t59.5 224q-2 47 -17 80t-38 52t-62.5 29.5t-79 13.5t-98.5 3q-196 0 -404 -39l-12 104q234 54 422 54q108 0 180 -11.5t131 -43t87 -91t28 -151.5q0 -133 -59.5 -250t-204.5 -281l-430 -487q76 4 235 4h514v-127h-913z " />
<glyph unicode="3" horiz-adv-x="1136" d="M113 10l12 107q251 -23 397 -23q181 0 257.5 70.5t76.5 241.5q0 66 -12 113t-44 88.5t-94 62.5t-155 22h-262v105l262 2q72 1 123.5 19t79.5 44t44.5 66.5t20.5 75t4 81.5q-3 142 -68.5 188t-248.5 46q-177 0 -356 -19l-15 103q208 35 385 35q237 0 334.5 -71.5 t97.5 -254.5q0 -313 -215 -356v-8q135 -22 192 -112.5t60 -242.5q5 -217 -96 -317.5t-342 -100.5q-168 0 -438 35z" />
<glyph unicode="4" horiz-adv-x="1245" d="M104 563l422 850h133l-417 -848q-19 -38 -2.5 -63t55.5 -25h547v432l26 236h103v-668h176v-96l-176 -14v-367h-129v367h-617q-78 0 -116.5 62.5t-4.5 133.5z" />
<glyph unicode="5" horiz-adv-x="1091" d="M117 29l16 106q208 -41 359 -41q107 0 176 21.5t105 67t49 100t14 137.5q1 63 -9.5 109.5t-26 80t-53 55.5t-71.5 35.5t-102.5 22t-124 11.5t-156.5 7l-70 7q-25 0 -40 17.5t-13 43.5l31 604h725l-6 -115h-609l-22 -440l139 -8q150 -8 247 -30t165.5 -70.5t98 -128.5 t28.5 -201q0 -74 -9 -132.5t-37.5 -119.5t-76 -101.5t-130 -66t-194.5 -25.5q-176 0 -403 54z" />
<glyph unicode="6" horiz-adv-x="1165" d="M147 651q0 128 7.5 230t24 181.5t39 138t57.5 100.5t74 68.5t93.5 42t110.5 21t131 5.5q161 0 270 -29l-16 -98q-86 12 -254 12q-76 0 -129 -8t-100 -31t-76 -63t-51.5 -104.5t-33 -154t-13.5 -214.5q80 95 164 131t212 36q221 0 304 -103.5t83 -367.5q0 -94 -9 -160 t-36.5 -128t-75 -99.5t-126.5 -59.5t-189 -22q-74 0 -131.5 8t-104.5 26.5t-81 44.5t-59.5 68t-41.5 91t-25.5 118t-13.5 144.5t-4 175.5zM281 645q0 -85 1.5 -143t7.5 -117.5t16 -97.5t27 -74.5t40.5 -57t58 -36.5t78 -22.5t100.5 -6.5q79 0 134.5 16t88.5 43t51.5 74.5 t24.5 97.5t6 125q0 101 -12.5 166t-45.5 110t-88.5 64t-141.5 19q-100 0 -176.5 -33t-169.5 -121v-6z" />
<glyph unicode="7" horiz-adv-x="1044" d="M86 1413h791q116 0 81 -110l-448 -1303h-135l416 1204q2 6 36 94h-735z" />
<glyph unicode="8" horiz-adv-x="1247" d="M154 352q0 179 52 271.5t179 105.5v8q-201 22 -201 324q0 80 12.5 137.5t42 103.5t80 73.5t126 42t180.5 14.5q131 0 216.5 -21t134.5 -69t68 -114t19 -167q0 -302 -201 -324v-8q126 -13 179 -106t53 -271q0 -103 -20 -168.5t-72.5 -112.5t-143 -67t-233.5 -22 q-113 -1 -193 13t-134.5 40.5t-86 72.5t-44.5 104t-13 140zM281 377q0 -108 28.5 -166t102.5 -85.5t213 -27.5q106 0 171 14t103.5 48.5t52 85t13.5 131.5q0 66 -6 111.5t-22 80t-39 55t-63 33t-88 17t-120 4.5q-74 -1 -123.5 -5.5t-90.5 -17.5t-64.5 -33.5t-39.5 -55 t-22 -79.5t-6 -110zM307 1051q0 -85 13 -134t51.5 -79t96.5 -40t159 -10q68 0 114 4t82.5 16t57.5 30t34.5 49t18 69t4.5 95q0 106 -24.5 161.5t-91.5 82t-197 26.5q-129 0 -197 -26t-94.5 -82.5t-26.5 -161.5z" />
<glyph unicode="9" horiz-adv-x="1167" d="M121 958q0 121 21.5 207t71.5 149t136 93.5t211 30.5q78 0 137 -8t106 -28t80 -46.5t56.5 -72t37.5 -94.5t22.5 -125t11 -152.5t2.5 -186.5q0 -160 -12.5 -277.5t-42 -201t-69.5 -136t-104 -83t-135.5 -41.5t-173.5 -11q-168 0 -287 29l17 98q115 -10 270 -10q77 0 131 9 t101.5 33t77 65t52 106t32.5 154t12 211q-82 -97 -167 -134.5t-214 -37.5q-205 0 -293 118.5t-88 341.5zM250 956q0 -178 62.5 -264t222.5 -86q99 0 176.5 34t171.5 124q0 72 -1 120t-4 101.5t-8.5 87.5t-14.5 71.5t-21.5 59.5t-30.5 44.5t-41 34.5t-53.5 22.5t-67 14 t-82.5 3.5q-94 0 -156 -24t-95 -74t-45.5 -113t-12.5 -156z" />
<glyph unicode=":" horiz-adv-x="460" d="M154 51v117q0 28 11.5 39.5t39.5 11.5h45q27 0 38 -11.5t11 -39.5v-117q0 -28 -11 -39.5t-38 -11.5h-45q-28 0 -39.5 11.5t-11.5 39.5zM154 727v117q0 28 11.5 39.5t39.5 11.5h45q27 0 38 -11.5t11 -39.5v-117q0 -28 -11 -39.5t-38 -11.5h-45q-28 0 -39.5 11.5 t-11.5 39.5z" />
<glyph unicode=";" horiz-adv-x="464" d="M160 727v117q0 28 11.5 39.5t39.5 11.5h43q28 0 39.5 -11.5t11.5 -39.5v-117q0 -28 -11.5 -39.5t-39.5 -11.5h-43q-28 0 -39.5 11.5t-11.5 39.5zM164 43v125q0 28 11.5 39.5t39.5 11.5h39q27 0 38 -11.5t11 -39.5v-131q-3 -165 -59 -295l-62 18q17 139 17 240 q-17 0 -26.5 11.5t-8.5 31.5z" />
<glyph unicode="&#x3c;" horiz-adv-x="1093" d="M117 555v104l823 365v-106l-709 -310l709 -301v-106z" />
<glyph unicode="=" horiz-adv-x="1202" d="M160 332v100h882v-100h-882zM160 764v100h882v-100h-882z" />
<glyph unicode="&#x3e;" horiz-adv-x="1093" d="M154 201v106l706 301l-706 310v106l821 -365v-104z" />
<glyph unicode="?" horiz-adv-x="1036" d="M88 1417q19 3 63 10.5t61.5 10.5t56.5 8t70.5 7t80.5 3.5t106 1.5q410 0 410 -317q0 -62 -20.5 -117.5t-53.5 -98t-72.5 -83t-79.5 -83.5t-73.5 -89t-55 -109t-22.5 -135h-115q-1 78 18 146t50.5 117t69 93t76 83t70 76.5t52 84t21.5 96.5q2 116 -70 171t-227 55 q-59 0 -104.5 -1t-91 -4t-64.5 -4.5t-74 -7.5t-72 -8zM432 51v117q0 28 11 39.5t38 11.5h37q28 0 39.5 -11.5t11.5 -39.5v-117q0 -28 -11.5 -39.5t-39.5 -11.5h-37q-27 0 -38 11.5t-11 39.5z" />
<glyph unicode="@" horiz-adv-x="1452" d="M168 543q0 114 3 190t13.5 147.5t25.5 113.5t46 80t67.5 56t96 32t126 18t163.5 4h292q144 0 218.5 -64.5t74.5 -208.5v-643h-96l-14 158q-68 -65 -188.5 -118.5t-241.5 -53.5q-123 0 -194 60t-71 173v107q0 99 61 153t175 54h449v106q0 86 -43 127t-152 41h-268 q-105 0 -160.5 -3.5t-111 -22.5t-78 -49t-42.5 -94.5t-24 -145.5t-4 -215q0 -83 1.5 -142.5t8 -114.5t13 -91t23.5 -69t32.5 -51.5t48 -34.5t60.5 -23t79.5 -12t96.5 -6t118 -1h516v-98q-276 -13 -514 -13q-86 -1 -149.5 0.5t-122.5 9.5t-99.5 18t-77 31.5t-59 46t-42 65 t-29 83.5t-16.5 107.5t-9 131.5t-2 161zM612 508q0 -148 162 -148q97 -2 210.5 40t189.5 108v213l-410 -8q-78 -3 -115 -35t-37 -98v-72z" />
<glyph unicode="A" horiz-adv-x="1259" d="M27 0l473 1374q12 39 53 39h154q41 0 53 -39l473 -1374h-139l-156 467h-616l-156 -467h-139zM360 584h539l-203 608q-4 14 -17.5 54t-19.5 61h-57l-39 -115z" />
<glyph unicode="B" horiz-adv-x="1263" d="M190 0v1413q164 17 437 17q133 0 218 -16.5t142 -59t81 -113t24 -180.5q0 -154 -57 -233t-183 -91v-8q153 -13 218 -107t65 -270q0 -110 -23.5 -180.5t-79 -112.5t-137 -58.5t-207.5 -16.5q-322 0 -498 16zM322 102q172 -4 350 -4q187 0 256 55t69 218q0 92 -17 150 t-59.5 93.5t-104.5 49.5t-161 16h-333v-578zM322 784h333q88 1 143.5 12.5t93.5 41.5t53.5 80t15.5 129q0 82 -17 133.5t-59 82t-103 41.5t-159 11q-225 0 -301 -2v-529z" />
<glyph unicode="C" horiz-adv-x="1161" d="M137 707q0 205 28 342t93 225t166.5 126t253.5 38q129 0 210 -8.5t167 -30.5l-17 -101q-164 19 -360 19q-152 0 -238 -57.5t-125 -188.5t-39 -364q0 -140 13.5 -240t42 -173t76.5 -115.5t113.5 -62.5t156.5 -20q227 0 389 23l16 -101q-160 -43 -405 -43q-152 0 -253.5 38 t-166.5 126.5t-93 225.5t-28 342z" />
<glyph unicode="D" horiz-adv-x="1355" d="M190 0v1413q268 19 490 19q152 0 252.5 -36.5t165.5 -123.5t93 -223t28 -342t-28 -342t-93 -223t-165.5 -123.5t-252.5 -36.5q-233 0 -490 18zM324 104q204 -4 356 -4q113 0 187.5 30.5t122 103.5t67.5 186.5t20 286.5q0 230 -38 360.5t-123 189t-236 58.5q-38 0 -356 -6 v-1205z" />
<glyph unicode="E" horiz-adv-x="1140" d="M178 231v951q0 106 68.5 169.5t181.5 63.5q411 0 604 -12l-8 -103h-573q-67 0 -102.5 -38t-35.5 -111v-346h631v-109h-631v-436q0 -72 36 -109.5t102 -37.5h573l8 -103q-193 -12 -604 -12q-114 0 -182 63.5t-68 169.5z" />
<glyph unicode="F" horiz-adv-x="1097" d="M184 0v1176q0 110 68.5 174.5t181.5 64.5q400 0 588 -12l-8 -103h-547q-72 0 -110 -38t-38 -111v-363h615v-108h-615v-680h-135z" />
<glyph unicode="G" horiz-adv-x="1282" d="M137 709q0 210 29 347.5t98 224t174.5 122t266.5 35.5q234 0 397 -39l-17 -101q-193 21 -372 21q-101 0 -170 -16.5t-122 -56.5t-83 -112t-44.5 -176.5t-14.5 -255.5q0 -332 78 -471t268 -139q77 0 150.5 26.5t116.5 55.5t109 80v563h132v-817h-97l-18 160 q-79 -80 -187.5 -132.5t-240.5 -52.5q-241 0 -347 175t-106 559z" />
<glyph unicode="H" horiz-adv-x="1359" d="M190 0v1413h134v-600h712v600h133v-1413h-133v698h-712v-698h-134z" />
<glyph unicode="I" horiz-adv-x="514" d="M190 0v1413h134v-1413h-134z" />
<glyph unicode="J" horiz-adv-x="684" d="M68 4l14 94h108q177 0 177 172v1143h135v-1139q0 -142 -67.5 -216t-198.5 -74q-82 0 -168 20z" />
<glyph unicode="K" horiz-adv-x="1189" d="M190 0v1413h134v-457q0 -77 -13 -163h197l453 620h149l-434 -600q-21 -33 -66 -74v-6q47 -43 72 -80l459 -653h-152l-481 682h-197q13 -89 13 -160v-522h-134z" />
<glyph unicode="L" horiz-adv-x="1046" d="M184 244v1169h135v-1151q0 -73 38 -111t110 -38h526l4 -103q-216 -12 -553 -12q-128 0 -194 67.5t-66 178.5z" />
<glyph unicode="M" horiz-adv-x="1779" d="M162 0l57 1354q0 59 60 59h161q45 0 60 -47l309 -922q46 -153 57 -192h45q10 38 32 106.5t28 87.5l309 920q12 47 59 47h160q60 0 60 -59l59 -1354h-133l-55 1300h-46l-366 -1107q-15 -46 -62 -46h-135q-46 0 -61 46l-369 1107h-43l-53 -1300h-133z" />
<glyph unicode="N" horiz-adv-x="1431" d="M190 0v1356q0 57 56 57h139q46 0 66 -45l526 -1049q15 -30 94 -190h43q-6 102 -6 203v1081h133v-1356q0 -57 -55 -57h-144q-45 0 -65 45l-539 1073q-5 10 -25.5 50t-33.5 68t-21 52h-39q5 -69 5 -170v-1118h-134z" />
<glyph unicode="O" d="M137 707q0 277 53 434.5t170 227t322 69.5t322 -69.5t170 -227t53 -434.5t-53 -434.5t-170 -227.5t-322 -70t-322 70t-170 227.5t-53 434.5zM276 707q0 -233 39 -364.5t126 -190t241 -58.5t240.5 58.5t124.5 190t38 364.5t-38 364t-124.5 189.5t-240.5 58.5t-241 -58 t-126 -189.5t-39 -364.5z" />
<glyph unicode="P" horiz-adv-x="1202" d="M190 0v1413q182 17 474 17q126 0 206.5 -20t134 -70t75.5 -132.5t22 -210.5q0 -129 -22 -211.5t-74 -132t-129.5 -69t-198.5 -19.5q-167 0 -354 17v-582h-134zM324 682h338q88 1 143 15t92.5 50t52.5 95.5t15 154.5q0 186 -65.5 252t-237.5 66q-174 0 -338 -4v-629z" />
<glyph unicode="Q" horiz-adv-x="1366" d="M137 707q0 277 53 434.5t170 227t322 69.5t322.5 -69.5t171 -227t53.5 -434.5t-53.5 -434.5t-171 -227.5t-322.5 -70t-322 70t-170 227.5t-53 434.5zM279 707q0 -233 38 -364.5t124.5 -190t240.5 -58.5t241 58.5t125.5 190t38.5 364.5t-38.5 364.5t-125.5 189.5t-241 58 t-240.5 -58.5t-124.5 -189.5t-38 -364zM563 -174l41 80q219 -111 514 -154l-43 -135q-277 51 -512 209z" />
<glyph unicode="R" horiz-adv-x="1257" d="M190 0v1413q182 17 474 17q123 0 203 -18.5t135 -65t78.5 -123.5t23.5 -197q0 -178 -60.5 -263.5t-199.5 -105.5v-8q56 -15 100.5 -67t67.5 -133l143 -449h-143l-135 444q-30 86 -79 124t-124 38q-186 0 -350 4v-610h-134zM324 723h340q87 1 143 14.5t93.5 48t53 90.5 t15.5 144q0 172 -66.5 233.5t-238.5 61.5q-176 0 -340 -4v-588z" />
<glyph unicode="S" horiz-adv-x="1144" d="M121 1069q0 99 18 166t50 107.5t90.5 61.5t122.5 27q55 5 137 5h28q230 0 408 -33l-10 -98q-242 12 -392 12q-50 0 -79 -1t-65 -4.5t-55.5 -10t-42.5 -19t-34.5 -30.5t-22 -44.5t-14.5 -61.5t-4 -81q0 -127 44.5 -183t150.5 -77l294 -62q158 -32 222.5 -122.5 t64.5 -264.5q0 -82 -12 -142.5t-38.5 -102.5t-61.5 -68.5t-90.5 -41t-114 -19.5t-142.5 -5q-233 0 -430 31l9 101q274 -13 426 -13q96 1 151 10t95.5 37.5t55.5 79t15 135.5q0 133 -44 188.5t-153 76.5l-301 63q-149 30 -212.5 121.5t-63.5 261.5z" />
<glyph unicode="T" horiz-adv-x="1177" d="M51 1294v119h1075v-119h-471v-1294h-135v1294h-469z" />
<glyph unicode="U" horiz-adv-x="1366" d="M180 535v878h133v-878q0 -244 83.5 -342.5t287.5 -98.5q202 0 284.5 98.5t82.5 342.5v878h135v-878q0 -305 -112.5 -432.5t-385.5 -127.5q-279 0 -393.5 127t-114.5 433z" />
<glyph unicode="V" horiz-adv-x="1234" d="M41 1413h139l365 -1153q22 -70 45 -154h55q23 84 45 154l365 1153h139l-449 -1374q-14 -39 -53 -39h-149q-19 0 -34.5 11t-19.5 28z" />
<glyph unicode="W" horiz-adv-x="1927" d="M66 1413h141l258 -1145q19 -83 33 -164h51q13 72 33 162l249 1100q10 47 56 47h153q46 0 56 -47l250 -1100q9 -38 32 -162h54q3 18 9 51t11 59.5t10 49.5l260 1149h142l-320 -1372q-10 -41 -55 -41h-162q-47 0 -57 43l-248 1108l-35 158h-45q-5 -20 -37 -158l-248 -1108 q-10 -43 -55 -43h-164q-45 0 -55 41z" />
<glyph unicode="X" horiz-adv-x="1239" d="M61 0l416 733l-389 680h145l353 -625h65l353 625h147l-389 -680l416 -733h-150l-381 684h-57l-381 -684h-148z" />
<glyph unicode="Y" horiz-adv-x="1144" d="M31 1413h143l324 -627q27 -53 67 -151h15q30 73 67 149l324 629h141l-473 -907v-506h-133v508z" />
<glyph unicode="Z" horiz-adv-x="1153" d="M102 0v115l791 1183h-782v115h931v-115l-790 -1183h803v-115h-953z" />
<glyph unicode="[" horiz-adv-x="661" d="M199 -244v1723q0 41 26 67.5t66 26.5h278v-90h-219q-12 0 -20 -8.5t-8 -20.5v-1673q0 -12 8 -20.5t20 -8.5h219v-90h-278q-41 0 -66.5 24t-25.5 70z" />
<glyph unicode="\" horiz-adv-x="1044" d="M63 1413h113l805 -1542h-113z" />
<glyph unicode="]" horiz-adv-x="661" d="M90 -248h221q12 0 20.5 8.5t8.5 20.5v1673q0 12 -8.5 20.5t-20.5 8.5h-221v90h279q41 0 67.5 -26.5t26.5 -67.5v-1723q0 -41 -26.5 -67.5t-67.5 -26.5h-279v90z" />
<glyph unicode="^" horiz-adv-x="847" d="M61 791l316 419h94l315 -419l-53 -39l-301 362h-16l-299 -362z" />
<glyph unicode="_" horiz-adv-x="1191" d="M150 0h892v-102h-892v102z" />
<glyph unicode="`" horiz-adv-x="616" d="M74 1372l78 98l335 -299l-49 -61z" />
<glyph unicode="a" horiz-adv-x="1116" d="M117 252v115q0 115 67.5 178t192.5 63h444v105q0 99 -46.5 145.5t-164.5 46.5q-174 0 -440 -28l-12 96q304 45 477 45q159 0 238 -70.5t79 -234.5v-713h-102l-16 174q-74 -74 -191.5 -132t-243.5 -58q-131 0 -206.5 69.5t-75.5 198.5zM248 264q0 -166 174 -166h8 q88 0 194 44q112 46 197 124v238h-424q-149 -6 -149 -154v-86z" />
<glyph unicode="b" horiz-adv-x="1159" d="M168 43v1391h129v-398q0 -143 -14 -213q198 195 393 195q190 0 275 -120.5t85 -399.5q0 -273 -95.5 -398t-330.5 -125q-225 0 -442 68zM297 127q141 -39 290 -39h21q159 0 226 92t67 318q0 227 -56.5 316t-205.5 89q-80 0 -154 -39.5t-188 -128.5v-608z" />
<glyph unicode="c" horiz-adv-x="993" d="M123 496q0 287 105 404.5t360 117.5q184 0 305 -45l-21 -84q-109 16 -264 16q-133 0 -207 -36.5t-108.5 -124.5t-34.5 -248t34.5 -248t108.5 -124t207 -36q166 0 289 23l14 -91q-149 -45 -323 -45q-255 0 -360 117t-105 404z" />
<glyph unicode="d" horiz-adv-x="1165" d="M125 498q0 283 88 401.5t283 118.5q187 0 374 -96q-8 68 -8 194v318h129v-1434h-100l-14 154q-205 -179 -398 -179q-189 0 -271.5 126t-82.5 397zM260 500q0 -157 26.5 -246t81 -126.5t148.5 -37.5q84 0 157.5 35t188.5 123v583q-112 38 -186.5 55t-153.5 17 q-98 0 -153.5 -36t-82 -123.5t-26.5 -243.5z" />
<glyph unicode="e" horiz-adv-x="1093" d="M123 500q0 286 102 402t342 116q211 0 311.5 -76.5t102.5 -232.5v-7q0 -270 -227 -270h-496q6 -101 28 -167.5t65.5 -105.5t103 -55t147.5 -16q146 0 342 25l14 -88q-59 -23 -169.5 -36.5t-204.5 -13.5q-250 0 -355.5 120t-105.5 405zM258 535h465q127 0 127 162v10 q-2 104 -67 151t-210 47q-174 0 -243 -80t-72 -290z" />
<glyph unicode="f" horiz-adv-x="759" d="M63 889v92l179 10v191q0 142 64.5 213t213.5 71q152 0 266 -12l-8 -96h-213q-105 0 -148.5 -43t-43.5 -146v-178h334v-102h-334v-889h-131v889h-179z" />
<glyph unicode="g" horiz-adv-x="1132" d="M96 -125q0 99 36.5 157t131.5 107q-58 33 -76 93q-9 29 -9 57q0 32 11 63q21 60 70 97q-123 68 -123 253q0 166 95 241t321 75q133 0 219 -27h311l-8 -73l-166 -13q58 -69 58 -203q0 -163 -94.5 -236t-319.5 -73q-137 0 -225 27q-31 -40 -38 -82q-1 -7 -1 -15 q0 -33 23 -61q28 -36 91 -47l381 -63q134 -21 187 -84.5t53 -188.5q0 -168 -102 -233.5t-359 -65.5q-261 0 -364 64.5t-103 230.5zM223 -117q0 -113 71.5 -152.5t268.5 -39.5q192 0 263 40t71 152q0 86 -34 119.5t-140 50.5l-371 58l-8 -7q-68 -46 -94.5 -94t-26.5 -127z M258 702q0 -110 67 -159t228 -49q160 0 225.5 48.5t65.5 159.5q0 114 -65.5 163.5t-225.5 49.5q-162 0 -228.5 -49.5t-66.5 -163.5z" />
<glyph unicode="h" horiz-adv-x="1181" d="M172 0v1434h133v-412q0 -119 -14 -193q255 189 457 189q131 0 199.5 -70t68.5 -203v-745h-131v711q0 105 -40 149.5t-132 44.5q-90 0 -182.5 -40.5t-229.5 -131.5v-733h-129z" />
<glyph unicode="i" horiz-adv-x="487" d="M172 1247v119q0 43 43 43h59q43 0 43 -43v-119q0 -43 -43 -43h-59q-43 0 -43 43zM180 0v991h129v-991h-129z" />
<glyph unicode="j" horiz-adv-x="489" d="M68 -365q57 73 84.5 147.5t27.5 168.5v1040h131v-1040q0 -110 -46 -207t-126 -166zM174 1247v119q0 43 41 43h61q43 0 43 -43v-119q0 -43 -43 -43h-61q-41 0 -41 43z" />
<glyph unicode="k" horiz-adv-x="1017" d="M172 0v1434h133v-652q0 -78 -10 -170h145l342 379h154l-332 -370q-32 -40 -61 -58v-4q31 -23 61 -70l365 -489h-152l-377 514h-147q8 -76 8 -166v-348h-129z" />
<glyph unicode="l" horiz-adv-x="587" d="M174 221v1213h129v-1188q0 -70 37.5 -107t108.5 -37h104l14 -98q-23 -8 -75 -14t-89 -6q-106 0 -167.5 61.5t-61.5 175.5z" />
<glyph unicode="m" horiz-adv-x="1796" d="M172 0v991h107l8 -164q219 191 418 191q210 0 251 -187q217 187 414 187q128 0 195 -70t67 -203v-745h-129v711q-2 101 -43.5 147.5t-132.5 46.5q-82 0 -157 -38t-205 -134v-733h-125v711q0 102 -43 148t-133 46q-81 0 -157 -37.5t-206 -132.5v-735h-129z" />
<glyph unicode="n" horiz-adv-x="1181" d="M172 0v991h109l10 -164q249 191 459 191q130 0 198 -69.5t68 -203.5v-745h-129v711q0 105 -40 149.5t-132 44.5q-91 0 -182.5 -40.5t-229.5 -131.5v-733h-131z" />
<glyph unicode="o" horiz-adv-x="1157" d="M123 496q0 286 103.5 404t353.5 118t352 -118t102 -404t-102 -403.5t-352 -117.5q-251 0 -354 117.5t-103 403.5zM260 496q0 -234 69.5 -322t250.5 -88t250 88t69 322t-69 321.5t-250 87.5t-250.5 -87.5t-69.5 -321.5z" />
<glyph unicode="p" horiz-adv-x="1173" d="M172 -418v1409h107l12 -164q91 91 198 141t211 50q185 0 267 -127.5t82 -398.5q0 -280 -87 -398.5t-282 -118.5t-383 105q5 -58 5 -131q0 -32 -1 -66v-301h-129zM301 164q123 -40 197 -57t153 -17q98 0 154 36.5t83 124t27 243.5q0 225 -57.5 317t-193.5 92 q-83 0 -165.5 -40t-197.5 -130v-569z" />
<glyph unicode="q" horiz-adv-x="1159" d="M123 494q0 138 21.5 233.5t71.5 162t134 97.5t207 31q98 0 216 -18.5t218 -51.5v-1366h-131v365q0 124 12 200q-207 -172 -409 -172q-175 0 -257.5 125t-82.5 394zM258 485q0 -212 54.5 -303.5t191.5 -91.5q89 0 166 36t192 118v620q-149 41 -285 41h-18 q-114 -1 -177.5 -38.5t-93.5 -128t-30 -253.5z" />
<glyph unicode="r" horiz-adv-x="806" d="M172 0v991h100l15 -164q244 191 438 191h43l-16 -123h-50q-86 0 -173 -36t-226 -118v-741h-131z" />
<glyph unicode="s" horiz-adv-x="1034" d="M111 748q0 71 15.5 119.5t43 78.5t77 46t105.5 22q47 5 115 5q12 0 25 -1q217 -3 405 -31l-12 -94q-246 12 -377 12q-21 0 -40.5 0.5t-36.5 -0.5q-35 -1 -63 -3t-49 -8.5t-36.5 -17.5t-25.5 -28.5t-14.5 -41.5t-4.5 -58q0 -44 9 -73t30 -47t46 -28t66 -18l305 -58 q119 -24 174.5 -84.5t55.5 -181.5q0 -73 -17.5 -123.5t-47.5 -81.5t-84.5 -48t-113.5 -22.5t-149 -5.5q-204 0 -379 27l10 96q135 -12 285 -13q30 0 61 1q74 1 121 5t86.5 14t59.5 29t30.5 48.5t10.5 73.5q0 81 -39.5 113.5t-122.5 48.5l-303 57q-116 24 -168.5 86.5 t-52.5 184.5z" />
<glyph unicode="t" horiz-adv-x="755" d="M59 889v92l181 10v301h129v-301h336v-102h-336v-643q0 -74 35.5 -109t109.5 -35h162l16 -98q-102 -20 -207 -20q-122 0 -183.5 63t-61.5 184v658h-181z" />
<glyph unicode="u" horiz-adv-x="1161" d="M166 246v745h129v-710q0 -103 42.5 -148t139.5 -45q84 0 167 38t214 126v739h129v-991h-102l-11 156q-230 -181 -440 -181q-132 0 -200 69t-68 202z" />
<glyph unicode="v" horiz-adv-x="1069" d="M45 991h139l271 -717q12 -30 33 -90.5t32 -87.5h27l67 180l271 715h137l-379 -958q-13 -33 -49 -33h-121q-36 0 -49 33z" />
<glyph unicode="w" horiz-adv-x="1679" d="M57 991h136l233 -760q17 -58 39 -143h27l38 143l199 719q10 41 51 41h119q41 0 51 -43l199 -717l37 -143h28q23 94 37 143l236 760h135l-309 -952q-12 -39 -53 -39h-121q-44 0 -54 43l-196 711q-7 26 -19.5 77t-19.5 76h-23l-39 -153l-194 -711q-10 -43 -55 -43h-119 q-44 0 -53 39z" />
<glyph unicode="x" horiz-adv-x="1064" d="M57 0l346 514l-321 477h143l281 -422h53l281 422h143l-321 -477l348 -514h-146l-309 465h-45l-309 -465h-144z" />
<glyph unicode="y" horiz-adv-x="1067" d="M45 991h139l293 -774q36 -94 41 -115h29l43 117l291 772h139l-418 -1061q-28 -71 -59.5 -125.5t-78 -105.5t-111 -82.5t-144.5 -40.5l-16 84q116 39 181 108.5t107 176.5l25 55h-33q-39 0 -51 35z" />
<glyph unicode="z" horiz-adv-x="1036" d="M102 0v109l676 776h-667v106h815v-106l-674 -776h682v-109h-832z" />
<glyph unicode="{" horiz-adv-x="638" d="M100 621v102q74 24 90 36q30 21 34 85q1 18 1 43v420q0 144 75.5 209.5t244.5 56.5v-84q-111 0 -153 -44.5t-42 -146.5v-387q1 -123 -33.5 -170t-138.5 -69q107 -34 143.5 -80t36.5 -152v-503q0 -102 42 -146.5t153 -44.5v-84q-169 -9 -244.5 56.5t-75.5 209.5v537 q0 51 -14 79.5t-33 39.5t-71 31q-3 1 -4 1.5t-3.5 1.5t-4 1.5t-3.5 1.5z" />
<glyph unicode="|" horiz-adv-x="495" d="M199 -346v1945h98v-1945h-98z" />
<glyph unicode="}" horiz-adv-x="638" d="M86 -254q111 0 153 44.5t42 146.5v503q0 106 36.5 152t143.5 80q-104 22 -138.5 69t-33.5 170v387q0 102 -42 146.5t-153 44.5v84q169 9 244.5 -56.5t75.5 -209.5v-420q0 -47 3.5 -73t18.5 -42.5t31.5 -24t55.5 -19.5q11 -3 16 -5v-102q-76 -30 -94 -43q-37 -29 -39 -102 v-11v-537q0 -144 -75.5 -209.5t-244.5 -56.5v84z" />
<glyph unicode="~" horiz-adv-x="1081" d="M164 477q-9 112 35.5 169t122.5 52q66 -3 141 -32.5t148.5 -59.5t133.5 -35q57 -4 80 23t23 94h70q10 -108 -33.5 -164.5t-122.5 -50.5q-60 3 -122.5 21.5t-106.5 40t-98.5 41t-98.5 22.5q-56 6 -78 -22.5t-22 -98.5h-72z" />
<glyph unicode="&#xa1;" horiz-adv-x="507" d="M186 831v119q0 27 12 38t40 11h34q28 0 40 -11t12 -38v-119q0 -27 -12 -38t-40 -11h-34q-28 0 -40 11t-12 38zM188 229l13 344h106l12 -344v-637h-131v637z" />
<glyph unicode="&#xa2;" horiz-adv-x="1036" d="M121 717q0 285 105.5 402.5t359.5 117.5h6l14 176h76l-16 -178q140 -11 225 -41l-19 -90q-89 16 -217 20l-63 -817h16q164 0 289 23l14 -90q-149 -45 -325 -45h-4l-17 -195h-73l16 199q-210 15 -298.5 134t-88.5 384zM252 717q0 -209 60 -300t206 -106l62 813 q-124 -3 -194 -41.5t-102 -125.5t-32 -240z" />
<glyph unicode="&#xa3;" horiz-adv-x="1159" d="M121 702v82h162l-15 287q-5 95 11 161.5t45.5 106t82 61.5t107.5 29t135 7q145 0 350 -21l-8 -104q-144 10 -360 10q-136 0 -188 -56t-44 -194l15 -287h463l-5 -82h-454l10 -178q6 -153 -25.5 -250t-121.5 -163q43 4 131 4h637v-115h-916v115q101 57 136.5 158t27.5 251 l-10 178h-166z" />
<glyph unicode="&#xa4;" horiz-adv-x="1222" d="M147 324l150 149q-86 110 -86 248q0 141 88 250l-147 147l59 62l147 -150q112 88 252 88q141 0 250 -88l152 150l59 -62l-151 -147q86 -109 86 -250t-88 -250l153 -152l-61 -59l-152 152q-109 -88 -248 -88q-140 0 -250 86l-149 -150zM295 721q0 -131 92.5 -223.5 t222.5 -91.5q128 -2 220 91.5t92 223.5t-92 222.5t-220 92.5q-130 0 -222.5 -92t-92.5 -223z" />
<glyph unicode="&#xa5;" horiz-adv-x="1253" d="M86 1413h141l320 -584q27 -53 74 -153h14q62 133 72 151l319 586h141l-422 -764h328v-82h-373l-6 -12v-135h379v-82h-379v-338h-135v338h-369v82h369v135l-6 12h-365v82h320z" />
<glyph unicode="&#xa6;" horiz-adv-x="499" d="M201 -346v819h98v-819h-98zM201 780v819h98v-819h-98z" />
<glyph unicode="&#xa7;" horiz-adv-x="1114" d="M135 1190q0 63 17.5 108t48.5 72t82 42.5t107.5 21t135.5 4.5q241 -4 445 -25l-10 -100q-188 12 -406 14q-49 1 -79.5 0t-66.5 -5t-57 -13t-40.5 -24.5t-28.5 -39.5t-9 -57q-1 -74 35.5 -121.5t108.5 -89.5l354 -199q135 -74 171.5 -184t6.5 -287h-98q12 140 -18 225.5 t-121 137.5l-367 209q-112 65 -161.5 133t-49.5 178zM145 -293l11 100q204 -11 407 -14q49 -1 77.5 0t65.5 5t57.5 13t40.5 25t29 42t9 61q1 74 -37 123.5t-107 87.5l-352 198q-93 50 -139.5 117t-52.5 152.5t12 197.5h98q-14 -142 15 -223t124 -135l367 -209 q109 -62 159 -132t50 -182q0 -49 -10 -87.5t-27 -65t-45.5 -45t-58 -29t-73 -16.5t-82 -7t-93.5 -1q-251 4 -445 24z" />
<glyph unicode="&#xa8;" horiz-adv-x="833" d="M176 1251v113q0 41 37 41h45q39 0 39 -41v-113q0 -39 -39 -39h-45q-37 0 -37 39zM539 1251v113q0 41 39 41h43q38 0 38 -41v-113q0 -39 -38 -39h-43q-21 0 -30 9t-9 30z" />
<glyph unicode="&#xa9;" horiz-adv-x="1728" d="M131 707q0 208 98.5 376t266 261.5t368.5 93.5q202 0 369.5 -93.5t265.5 -261.5t98 -376t-98 -376.5t-265.5 -262t-369.5 -93.5q-150 0 -285.5 55.5t-234 151t-156 232.5t-57.5 293zM207 707q0 -185 89 -336.5t239 -235.5t329 -84q133 0 254 49.5t209.5 135.5t140.5 209 t52 262q0 185 -88.5 336t-238.5 235t-329 84t-329 -84t-239 -235t-89 -336zM475 713q0 253 89 355.5t310 102.5q168 0 275 -26l-14 -76q-110 10 -263 10q-164 0 -228 -80t-64 -286q0 -207 64 -288t228 -81q189 0 287 12l10 -75q-132 -29 -295 -29q-221 0 -310 103.5 t-89 357.5z" />
<glyph unicode="&#xaa;" horiz-adv-x="905" d="M141 719v80q0 77 48.5 119.5t136.5 42.5h317v69q0 123 -139 123q-131 0 -322 -18l-10 73q213 31 350 31q109 0 165 -49t56 -162v-473h-79l-13 127q-56 -54 -139.5 -95.5t-173.5 -41.5q-92 0 -144.5 45t-52.5 129zM242 737q0 -54 31 -79t94 -25q64 -1 141 30.5t135 79.5 v158l-289 -12q-59 -3 -85.5 -27t-26.5 -69v-56z" />
<glyph unicode="&#xab;" horiz-adv-x="968" d="M96 498v32l330 406l68 -45l-275 -377l277 -383l-68 -45zM451 498v32l329 406l68 -45l-275 -377l277 -383l-68 -45z" />
<glyph unicode="&#xac;" horiz-adv-x="1210" d="M160 557v102h882v-391h-104v289h-778z" />
<glyph unicode="&#xad;" horiz-adv-x="942" d="M158 465v102h628v-102h-628z" />
<glyph unicode="&#xae;" horiz-adv-x="1153" d="M121 981q0 189 133.5 322t323.5 133q189 0 321.5 -133t132.5 -322q0 -190 -132.5 -323.5t-321.5 -133.5q-190 0 -323.5 133t-133.5 324zM176 981q0 -167 118 -286.5t284 -119.5q164 0 282.5 119.5t118.5 286.5q0 168 -118 286.5t-283 118.5q-166 0 -284 -118.5 t-118 -286.5zM373 709v546q84 7 225 7q115 0 162 -33.5t47 -122.5q0 -67 -29 -100.5t-96 -40.5v-4q60 -10 80 -80l67 -172h-69l-64 168q-24 63 -94 63l-164 2v-233h-65zM438 989h158q81 2 113 25.5t32 85.5q0 64 -31.5 86t-113.5 22h-158v-219z" />
<glyph unicode="&#xaf;" horiz-adv-x="819" d="M131 1260v100h557v-100h-557z" />
<glyph unicode="&#xb0;" horiz-adv-x="757" d="M119 1182q0 106 76.5 181t183.5 75q106 0 184 -75.5t78 -180.5q0 -106 -77.5 -183t-184.5 -77q-106 0 -183 77t-77 183zM205 1182q0 -72 51 -124t123 -52t124 52t52 124q0 74 -51 124t-125 50q-73 0 -123.5 -50t-50.5 -124z" />
<glyph unicode="&#xb1;" horiz-adv-x="1212" d="M166 160v100h881v-100h-881zM166 676v100h389v283h102v-283h390v-100h-392v-283h-100v283h-389z" />
<glyph unicode="&#xb2;" horiz-adv-x="894" d="M133 737v58q0 25 19 47l284 282q90 90 131 156.5t41 126.5q0 27 -9 46t-24 30.5t-40.5 17.5t-51 8t-63.5 2q-121 0 -270 -20l-9 78q146 30 283 30q78 0 128.5 -7t91 -26.5t59 -57t18.5 -95.5q0 -73 -41 -143t-133 -164l-281 -279q102 4 150 2h342v-92h-625z" />
<glyph unicode="&#xb3;" horiz-adv-x="858" d="M133 743l8 78q135 -12 265 -12q119 0 168 39t49 137q0 73 -42 115.5t-155 42.5h-174v76l174 2q58 1 96.5 16t54.5 41t21.5 49t5.5 55q0 76 -44 103.5t-163 27.5q-136 0 -241 -10l-9 76q129 20 263 20q167 0 232 -42t65 -152q0 -90 -35 -145.5t-121 -69.5v-4 q95 -13 135.5 -66.5t42.5 -146.5q3 -131 -66 -190.5t-235 -59.5q-111 0 -295 20z" />
<glyph unicode="&#xb4;" horiz-adv-x="616" d="M117 1171l336 299l77 -98l-364 -262z" />
<glyph unicode="&#xb6;" horiz-adv-x="1218" d="M92 922q0 283 142.5 399.5t478.5 116.5q180 0 299 -35v-1403h-105v1335q-86 8 -239 13v-1778h-105v842q-252 23 -361.5 141.5t-109.5 368.5z" />
<glyph unicode="&#xb7;" horiz-adv-x="460" d="M158 469v117q0 28 11.5 39.5t39.5 11.5h45q26 0 37.5 -11.5t11.5 -39.5v-117q0 -28 -11.5 -39.5t-37.5 -11.5h-45q-28 0 -39.5 11.5t-11.5 39.5z" />
<glyph unicode="&#xb8;" horiz-adv-x="466" d="M76 -463l20 72q90 -3 146.5 42t58.5 116q0 43 -25.5 59.5t-95.5 17.5l15 64q107 9 156 -20.5t46 -112.5q-3 -122 -92.5 -189.5t-228.5 -48.5z" />
<glyph unicode="&#xb9;" horiz-adv-x="595" d="M80 1497l246 88h104v-848h-104v680q0 49 6 74l-238 -66z" />
<glyph unicode="&#xba;" horiz-adv-x="913" d="M133 889q0 193 72.5 271.5t251.5 78.5t251 -78.5t72 -271.5t-72 -271.5t-251 -78.5t-251.5 78.5t-72.5 271.5zM238 889q0 -151 47.5 -207.5t171.5 -56.5q122 0 169.5 56.5t47.5 207.5q0 152 -47 209t-170 57q-124 0 -171.5 -56.5t-47.5 -209.5z" />
<glyph unicode="&#xbb;" horiz-adv-x="968" d="M119 131l276 383l-274 377l67 45l330 -406v-32l-332 -412zM473 131l277 383l-275 377l68 45l329 -406v-32l-331 -412z" />
<glyph unicode="&#xbc;" horiz-adv-x="1751" d="M90 1325l246 88h102v-848h-102v680q0 49 6 74l-240 -66zM272 0l940 1413h99l-940 -1413h-99zM964.5 247.5q-23.5 34.5 0.5 86.5l274 514h102l-268 -502q-10 -20 1 -35.5t36 -15.5h352v252l21 139h78v-391h96v-72l-96 -8v-215h-99v213h-422q-52 0 -75.5 34.5z" />
<glyph unicode="&#xbd;" horiz-adv-x="1804" d="M90 1325l246 88h102v-848h-102v680q0 49 6 74l-240 -66zM264 0l940 1413h99l-941 -1413h-98zM1071 0v57q0 25 16 47l287 283q89 91 130.5 157t41.5 126q0 27 -9 46t-24 30.5t-40.5 17.5t-51 8t-63.5 2q-122 0 -271 -20l-8 77q150 31 283 31q78 0 128.5 -7t91 -26.5 t59 -57t18.5 -95.5q0 -73 -41.5 -143.5t-134.5 -163.5l-279 -279q100 4 150 2h342v-92h-625z" />
<glyph unicode="&#xbe;" horiz-adv-x="1937" d="M123 567l8 78q138 -12 266 -12q119 0 168 39t49 135q0 75 -41.5 117.5t-154.5 42.5l-176 2v71l176 4q58 1 96.5 16t54.5 41t21.5 49t5.5 54q0 77 -44 105t-163 28q-137 0 -242 -10l-8 76q131 20 262 20q167 0 232 -42t65 -152q0 -90 -34.5 -145.5t-120.5 -69.5v-4 q96 -13 136 -66t42 -147q3 -131 -66 -190.5t-235 -59.5q-109 0 -297 20zM481 0l940 1413h99l-940 -1413h-99zM1149 334l276 514h103l-271 -502q-10 -20 1 -35.5t36 -15.5h344v252l19 139h78v-391h108v-72l-108 -10v-213h-97v213h-413q-50 0 -75.5 35.5t-0.5 85.5z" />
<glyph unicode="&#xbf;" horiz-adv-x="1028" d="M94 -125q0 62 20.5 117.5t53.5 98t72.5 83t80 83.5t74 89t55 109t23.5 135h113q1 -78 -17.5 -146t-49.5 -117t-69 -93t-76 -83t-69.5 -76.5t-52 -84t-21.5 -96.5q-2 -114 70 -169t227 -55q43 0 78 0.5t69.5 2t52.5 2t54 3.5t44.5 4t52.5 5.5t53 5.5l10 -94 q-18 -3 -62 -11t-61 -10.5t-56.5 -7.5t-71 -7t-80.5 -3.5t-107 -1.5q-410 0 -410 317zM463 848v117q0 28 11.5 39.5t39.5 11.5h37q27 0 38 -11.5t11 -39.5v-117q0 -28 -11 -39.5t-38 -11.5h-37q-28 0 -39.5 11.5t-11.5 39.5z" />
<glyph unicode="&#xc0;" horiz-adv-x="1259" d="M27 0l473 1374q12 39 53 39h154q41 0 53 -39l473 -1374h-139l-156 467h-616l-156 -467h-139zM311 1759l78 99l336 -299l-49 -62zM360 584h539l-203 608q-4 14 -17.5 54t-19.5 61h-57l-39 -115z" />
<glyph unicode="&#xc1;" horiz-adv-x="1259" d="M27 0l473 1374q12 39 53 39h154q41 0 53 -39l473 -1374h-139l-156 467h-616l-156 -467h-139zM360 584h539l-203 608q-4 14 -17.5 54t-19.5 61h-57l-39 -115zM510 1559l336 299l78 -99l-365 -262z" />
<glyph unicode="&#xc2;" horiz-adv-x="1259" d="M27 0l473 1374q12 39 53 39h154q41 0 53 -39l473 -1374h-139l-156 467h-616l-156 -467h-139zM309 1571l273 254h96l272 -254l-47 -58l-266 203h-16l-265 -203zM360 584h539l-203 608q-4 14 -17.5 54t-19.5 61h-57l-39 -115z" />
<glyph unicode="&#xc3;" horiz-adv-x="1259" d="M27 0l473 1374q12 39 53 39h154q41 0 53 -39l473 -1374h-139l-156 467h-616l-156 -467h-139zM317 1575q-10 110 35 166.5t123 50.5q52 -4 101.5 -32.5l99 -57t98.5 -33.5q57 -6 82 21.5t25 91.5h63q9 -104 -35 -159.5t-123 -49.5q-46 3 -90.5 22t-73 39.5t-65.5 39.5 t-70 22q-59 6 -82.5 -23t-23.5 -98h-64zM360 584h539l-203 608q-4 14 -17.5 54t-19.5 61h-57l-39 -115z" />
<glyph unicode="&#xc4;" horiz-adv-x="1259" d="M27 0l473 1374q12 39 53 39h154q41 0 53 -39l473 -1374h-139l-156 467h-616l-156 -467h-139zM360 584h539l-203 608q-4 14 -17.5 54t-19.5 61h-57l-39 -115zM389 1618v113q0 41 37 41h45q39 0 39 -41v-113q0 -39 -39 -39h-45q-37 0 -37 39zM752 1618v113q0 41 36 41h46 q38 0 38 -41v-113q0 -39 -38 -39h-46q-20 0 -28 9t-8 30z" />
<glyph unicode="&#xc5;" horiz-adv-x="1259" d="M27 0l473 1374q12 39 53 39h154q41 0 53 -39l473 -1374h-139l-156 467h-616l-156 -467h-139zM360 584h539l-203 608q-4 14 -17.5 54t-19.5 61h-57l-39 -115zM420 1673q0 88 61.5 148.5t149.5 60.5q87 0 149 -61t62 -148t-61.5 -147t-149.5 -60t-149.5 60t-61.5 147z M498 1673q0 -59 38 -97t95 -38t95 38t38 97q0 61 -37.5 99t-95.5 38t-95.5 -38t-37.5 -99z" />
<glyph unicode="&#xc6;" horiz-adv-x="1865" d="M6 0l744 1208q72 121 163 163t254 42q376 0 588 -10l-4 -105h-534q-66 0 -107 -41t-41 -110v-342h598v-111h-598v-432q0 -72 38 -110.5t110 -38.5h534l4 -103q-193 -12 -588 -12q-99 0 -162 65.5t-63 167.5v265h-491l-301 -496h-144zM520 608h422v555q0 44 21.5 88.5 t50.5 63.5h-17q-70 -36 -131 -135z" />
<glyph unicode="&#xc7;" horiz-adv-x="1161" d="M137 707q0 205 28 342t93 225t166.5 126t253.5 38q129 0 210 -8.5t167 -30.5l-17 -101q-164 19 -360 19q-152 0 -238 -57.5t-125 -188.5t-39 -364q0 -140 13.5 -240t42 -173t76.5 -115.5t113.5 -62.5t156.5 -20q227 0 389 23l16 -101q-160 -43 -405 -43q-152 0 -253.5 38 t-166.5 126.5t-93 225.5t-28 342zM473 -487l21 71q90 -3 146 42t58 116q2 43 -24 60t-96 18l14 63q108 9 157 -20t46 -113q-2 -122 -92 -189t-230 -48z" />
<glyph unicode="&#xc8;" horiz-adv-x="1140" d="M178 231v951q0 106 68.5 169.5t181.5 63.5q411 0 604 -12l-8 -103h-573q-67 0 -102.5 -38t-35.5 -111v-346h631v-109h-631v-436q0 -72 36 -109.5t102 -37.5h573l8 -103q-193 -12 -604 -12q-114 0 -182 63.5t-68 169.5zM315 1804l78 99l336 -299l-49 -62z" />
<glyph unicode="&#xc9;" horiz-adv-x="1140" d="M178 231v951q0 106 68.5 169.5t181.5 63.5q411 0 604 -12l-8 -103h-573q-67 0 -102.5 -38t-35.5 -111v-346h631v-109h-631v-436q0 -72 36 -109.5t102 -37.5h573l8 -103q-193 -12 -604 -12q-114 0 -182 63.5t-68 169.5zM514 1604l336 299l78 -99l-365 -262z" />
<glyph unicode="&#xca;" horiz-adv-x="1140" d="M178 231v951q0 106 68.5 169.5t181.5 63.5q411 0 604 -12l-8 -103h-573q-67 0 -102.5 -38t-35.5 -111v-346h631v-109h-631v-436q0 -72 36 -109.5t102 -37.5h573l8 -103q-193 -12 -604 -12q-114 0 -182 63.5t-68 169.5zM313 1616l273 254h94l274 -254l-47 -57l-266 202 h-16l-265 -202z" />
<glyph unicode="&#xcb;" horiz-adv-x="1140" d="M178 231v951q0 106 68.5 169.5t181.5 63.5q411 0 604 -12l-8 -103h-573q-67 0 -102.5 -38t-35.5 -111v-346h631v-109h-631v-436q0 -72 36 -109.5t102 -37.5h573l8 -103q-193 -12 -604 -12q-114 0 -182 63.5t-68 169.5zM391 1665v113q0 39 39 39h45q39 0 39 -39v-113 q0 -41 -39 -41h-45q-39 0 -39 41zM754 1665v113q0 39 39 39h45q39 0 39 -39v-113q0 -41 -39 -41h-45q-39 0 -39 41z" />
<glyph unicode="&#xcc;" horiz-adv-x="514" d="M-63 1759l77 99l336 -299l-49 -62zM190 0v1413h134v-1413h-134z" />
<glyph unicode="&#xcd;" horiz-adv-x="514" d="M135 1559l336 299l78 -99l-365 -262zM190 0v1413h134v-1413h-134z" />
<glyph unicode="&#xce;" horiz-adv-x="514" d="M-66 1571l275 254h94l272 -254l-47 -58l-264 203h-16l-266 -203zM190 0v1413h134v-1413h-134z" />
<glyph unicode="&#xcf;" horiz-adv-x="514" d="M14 1618v113q0 41 37 41h45q39 0 39 -41v-113q0 -39 -39 -39h-45q-37 0 -37 39zM190 0v1413h134v-1413h-134zM377 1618v113q0 41 39 41h43q39 0 39 -41v-113q0 -39 -39 -39h-43q-39 0 -39 39z" />
<glyph unicode="&#xd0;" d="M49 715v80h150v618q268 19 489 19q152 0 252.5 -36.5t165.5 -123.5t93 -223t28 -342t-28 -342t-93 -223t-165.5 -123.5t-252.5 -36.5q-232 0 -489 18v715h-150zM332 104q204 -4 356 -4q113 0 187.5 30.5t122 103.5t67.5 186.5t20 286.5q0 230 -38 360.5t-123 189 t-236 58.5q-38 0 -356 -6v-514h334v-80h-334v-611z" />
<glyph unicode="&#xd1;" horiz-adv-x="1431" d="M190 0v1356q0 57 56 57h139q46 0 66 -45l526 -1049q15 -30 94 -190h43q-6 102 -6 203v1081h133v-1356q0 -57 -55 -57h-144q-45 0 -65 45l-539 1073q-5 10 -25.5 50t-33.5 68t-21 52h-39q5 -69 5 -170v-1118h-134zM422 1575q-9 110 36 166.5t122 50.5q42 -3 83 -21.5 t69.5 -39t68 -39.5t78.5 -23q58 -6 82 21t24 92h66q9 -104 -35.5 -159.5t-122.5 -49.5q-46 3 -90.5 22t-74 39.5t-66.5 39.5t-70 22q-57 6 -81 -23t-24 -98h-65z" />
<glyph unicode="&#xd2;" d="M137 707q0 277 53 434.5t170 227t322 69.5t322 -69.5t170 -227t53 -434.5t-53 -434.5t-170 -227.5t-322 -70t-322 70t-170 227.5t-53 434.5zM276 707q0 -233 39 -364.5t126 -190t241 -58.5t240.5 58.5t124.5 190t38 364.5t-38 364t-124.5 189.5t-240.5 58.5t-241 -58 t-126 -189.5t-39 -364.5zM362 1759l78 99l336 -299l-49 -62z" />
<glyph unicode="&#xd3;" d="M137 707q0 277 53 434.5t170 227t322 69.5t322 -69.5t170 -227t53 -434.5t-53 -434.5t-170 -227.5t-322 -70t-322 70t-170 227.5t-53 434.5zM276 707q0 -233 39 -364.5t126 -190t241 -58.5t240.5 58.5t124.5 190t38 364.5t-38 364t-124.5 189.5t-240.5 58.5t-241 -58 t-126 -189.5t-39 -364.5zM561 1559l336 299l76 -99l-363 -262z" />
<glyph unicode="&#xd4;" d="M137 707q0 277 53 434.5t170 227t322 69.5t322 -69.5t170 -227t53 -434.5t-53 -434.5t-170 -227.5t-322 -70t-322 70t-170 227.5t-53 434.5zM276 707q0 -233 39 -364.5t126 -190t241 -58.5t240.5 58.5t124.5 190t38 364.5t-38 364t-124.5 189.5t-240.5 58.5t-241 -58 t-126 -189.5t-39 -364.5zM360 1571l273 254h94l274 -254l-47 -58l-266 203h-16l-264 -203z" />
<glyph unicode="&#xd5;" d="M137 707q0 277 53 434.5t170 227t322 69.5t322 -69.5t170 -227t53 -434.5t-53 -434.5t-170 -227.5t-322 -70t-322 70t-170 227.5t-53 434.5zM276 707q0 -233 39 -364.5t126 -190t241 -58.5t240.5 58.5t124.5 190t38 364.5t-38 364t-124.5 189.5t-240.5 58.5t-241 -58 t-126 -189.5t-39 -364.5zM367 1575q-9 110 35.5 166.5t121.5 50.5q42 -3 83 -21.5t69.5 -39t68 -39.5t78.5 -23q59 -6 83 21t24 92h65q9 -104 -35 -159.5t-122 -49.5q-46 3 -90.5 22t-73.5 39.5t-66 39.5t-71 22q-57 6 -81 -23t-24 -98h-65z" />
<glyph unicode="&#xd6;" d="M137 707q0 277 53 434.5t170 227t322 69.5t322 -69.5t170 -227t53 -434.5t-53 -434.5t-170 -227.5t-322 -70t-322 70t-170 227.5t-53 434.5zM276 707q0 -233 39 -364.5t126 -190t241 -58.5t240.5 58.5t124.5 190t38 364.5t-38 364t-124.5 189.5t-240.5 58.5t-241 -58 t-126 -189.5t-39 -364.5zM438 1618v113q0 41 39 41h45q39 0 39 -41v-113q0 -39 -39 -39h-45q-39 0 -39 39zM801 1618v113q0 41 39 41h45q39 0 39 -41v-113q0 -39 -39 -39h-45q-39 0 -39 39z" />
<glyph unicode="&#xd7;" horiz-adv-x="995" d="M109 877l725 -650l63 78l-723 651z" />
<glyph unicode="&#xd8;" d="M137 707q0 277 53 434.5t170 227t322 69.5q164 0 266 -41l64 133l75 -33l-65 -139q109 -74 157 -229.5t48 -421.5q0 -277 -53 -434.5t-170 -227.5t-322 -70q-179 0 -285 50l-65 -138l-76 33l70 148q-100 75 -144.5 229t-44.5 410zM276 707q0 -375 111 -506l506 1077 q-78 41 -211 41q-154 0 -241 -58t-126 -189.5t-39 -364.5zM453 145q86 -51 229 -51q154 0 240.5 58.5t124.5 190t38 364.5q0 205 -29 330.5t-95 191.5z" />
<glyph unicode="&#xd9;" horiz-adv-x="1366" d="M180 535v878h133v-878q0 -244 83.5 -342.5t287.5 -98.5q202 0 284.5 98.5t82.5 342.5v878h135v-878q0 -305 -112.5 -432.5t-385.5 -127.5q-279 0 -393.5 127t-114.5 433zM367 1759l75 99l336 -299l-47 -62z" />
<glyph unicode="&#xda;" horiz-adv-x="1366" d="M180 535v878h133v-878q0 -244 83.5 -342.5t287.5 -98.5q202 0 284.5 98.5t82.5 342.5v878h135v-878q0 -305 -112.5 -432.5t-385.5 -127.5q-279 0 -393.5 127t-114.5 433zM563 1559l336 299l78 -99l-365 -262z" />
<glyph unicode="&#xdb;" horiz-adv-x="1366" d="M180 535v878h133v-878q0 -244 83.5 -342.5t287.5 -98.5q202 0 284.5 98.5t82.5 342.5v878h135v-878q0 -305 -112.5 -432.5t-385.5 -127.5q-279 0 -393.5 127t-114.5 433zM365 1571l272 254h94l275 -254l-50 -58l-264 203h-16l-266 -203z" />
<glyph unicode="&#xdc;" horiz-adv-x="1366" d="M180 535v878h133v-878q0 -244 83.5 -342.5t287.5 -98.5q202 0 284.5 98.5t82.5 342.5v878h135v-878q0 -305 -112.5 -432.5t-385.5 -127.5q-279 0 -393.5 127t-114.5 433zM442 1618v113q0 41 37 41h47q37 0 37 -41v-113q0 -39 -37 -39h-47q-37 0 -37 39zM805 1618v113 q0 41 39 41h45q39 0 39 -41v-113q0 -39 -39 -39h-45q-39 0 -39 39z" />
<glyph unicode="&#xdd;" horiz-adv-x="1144" d="M31 1413h143l324 -627q27 -53 67 -151h15q30 73 67 149l324 629h141l-473 -907v-506h-133v508zM451 1559l335 299l78 -99l-364 -262z" />
<glyph unicode="&#xde;" horiz-adv-x="1206" d="M190 0v1137v276h134v-266q94 6 340 6q126 0 206.5 -19.5t134 -70.5t75.5 -133.5t22 -212.5t-22 -213t-74.5 -133t-129.5 -69t-198 -19q-200 0 -354 14v-297h-134zM324 399h338q117 1 180 27.5t93 94.5t30 196q0 129 -30 197.5t-93 95t-180 26.5q-254 0 -338 -2v-635z" />
<glyph unicode="&#xdf;" horiz-adv-x="1366" d="M63 887v100l179 4v113q0 69 11 123.5t30 92.5t50.5 65.5t65.5 44t83.5 25.5t96.5 12t111 3q237 0 343 -56.5t106 -199.5q0 -99 -40.5 -156.5t-148.5 -111.5q-24 -12 -58 -26.5t-51.5 -22.5t-40 -20.5t-33.5 -23t-22.5 -25.5t-15.5 -34t-4 -44q0 -57 31 -86.5t102 -59.5 l236 -88q98 -41 141 -97t43 -163q0 -71 -15.5 -121t-42.5 -81t-72.5 -48t-95.5 -23t-122 -6q-160 0 -332 23l8 98q133 -12 301 -12q56 1 90.5 4t67 13t49.5 29t27 50t10 78q0 40 -9 68t-31 47t-42.5 30t-60.5 27l-236 92q-84 33 -128 86t-44 138q0 27 3.5 50t13.5 42 t18.5 34t27 30t31 24.5t39 23t41.5 20.5t48 21.5t50 22.5q84 39 115 79.5t31 116.5q0 80 -75.5 115t-248.5 35q-188 0 -254.5 -54t-66.5 -216v-1092h-131v887h-179z" />
<glyph unicode="&#xe0;" horiz-adv-x="1116" d="M117 252v115q0 115 67.5 178t192.5 63h444v105q0 99 -46.5 145.5t-164.5 46.5q-174 0 -440 -28l-12 96q304 45 477 45q159 0 238 -70.5t79 -234.5v-713h-102l-16 174q-74 -74 -191.5 -132t-243.5 -58q-131 0 -206.5 69.5t-75.5 198.5zM229 1389l78 98l336 -299l-49 -62z M248 264q0 -166 174 -166q90 -2 201.5 44t197.5 124v238h-424q-149 -6 -149 -154v-86z" />
<glyph unicode="&#xe1;" horiz-adv-x="1116" d="M117 252v115q0 115 67.5 178t192.5 63h444v105q0 99 -46.5 145.5t-164.5 46.5q-174 0 -440 -28l-12 96q304 45 477 45q159 0 238 -70.5t79 -234.5v-713h-102l-16 174q-74 -74 -191.5 -132t-243.5 -58q-131 0 -206.5 69.5t-75.5 198.5zM248 264q0 -166 174 -166 q90 -2 201.5 44t197.5 124v238h-424q-149 -6 -149 -154v-86zM428 1188l336 299l78 -98l-365 -263z" />
<glyph unicode="&#xe2;" horiz-adv-x="1116" d="M117 252v115q0 115 67.5 178t192.5 63h444v105q0 99 -46.5 145.5t-164.5 46.5q-174 0 -440 -28l-12 96q304 45 477 45q159 0 238 -70.5t79 -234.5v-713h-102l-16 174q-74 -74 -191.5 -132t-243.5 -58q-131 0 -206.5 69.5t-75.5 198.5zM227 1200l275 254h94l274 -254 l-49 -57l-264 205h-16l-267 -205zM248 264q0 -166 174 -166q90 -2 201.5 44t197.5 124v238h-424q-149 -6 -149 -154v-86z" />
<glyph unicode="&#xe3;" horiz-adv-x="1116" d="M117 252v115q0 115 67.5 178t192.5 63h444v105q0 99 -46.5 145.5t-164.5 46.5q-174 0 -440 -28l-12 96q304 45 477 45q159 0 238 -70.5t79 -234.5v-713h-102l-16 174q-74 -74 -191.5 -132t-243.5 -58q-131 0 -206.5 69.5t-75.5 198.5zM236 1206q-9 109 35 165t122 50 q42 -3 83 -21.5t69 -39t67.5 -39.5t79.5 -23q59 -6 83 21t24 92h63q10 -104 -33.5 -159.5t-121.5 -49.5q-47 3 -91.5 22t-73.5 40t-66 40t-70 23q-58 6 -81.5 -23.5t-23.5 -97.5h-65zM248 264q0 -166 174 -166q90 -2 201.5 44t197.5 124v238h-424q-149 -6 -149 -154v-86z " />
<glyph unicode="&#xe4;" horiz-adv-x="1116" d="M117 252v115q0 115 67.5 178t192.5 63h444v105q0 99 -46.5 145.5t-164.5 46.5q-174 0 -440 -28l-12 96q304 45 477 45q159 0 238 -70.5t79 -234.5v-713h-102l-16 174q-74 -74 -191.5 -132t-243.5 -58q-131 0 -206.5 69.5t-75.5 198.5zM248 264q0 -166 174 -166 q90 -2 201.5 44t197.5 124v238h-424q-149 -6 -149 -154v-86zM307 1249v113q0 39 37 39h47q37 0 37 -39v-113q0 -41 -37 -41h-47q-37 0 -37 41zM670 1249v113q0 39 39 39h45q37 0 37 -39v-113q0 -41 -37 -41h-45q-39 0 -39 41z" />
<glyph unicode="&#xe5;" horiz-adv-x="1116" d="M117 252v115q0 115 67.5 178t192.5 63h444v105q0 99 -46.5 145.5t-164.5 46.5q-174 0 -440 -28l-12 96q304 45 477 45q159 0 238 -70.5t79 -234.5v-713h-102l-16 174q-74 -74 -191.5 -132t-243.5 -58q-131 0 -206.5 69.5t-75.5 198.5zM248 264q0 -166 174 -166 q90 -2 201.5 44t197.5 124v238h-424q-149 -6 -149 -154v-86zM338 1305q0 86 62 146t149 60q88 0 150.5 -60t62.5 -146q0 -88 -62 -147.5t-151 -59.5t-150 59t-61 148zM416 1305q0 -60 38 -98t95 -38q58 0 96.5 37.5t38.5 98.5q0 59 -38.5 97t-96.5 38q-57 0 -95 -38t-38 -97 z" />
<glyph unicode="&#xe6;" horiz-adv-x="1789" d="M117 252v115q0 115 67.5 178t192.5 63h444v105q0 99 -46.5 145.5t-164.5 46.5q-174 0 -440 -28l-12 96q304 45 477 45q212 0 280 -127q102 127 351 127q211 0 311 -76.5t102 -232.5q2 -143 -62.5 -210t-207.5 -67h-451q5 -101 27 -167.5t65 -105.5t102.5 -55t147.5 -16 q150 0 342 25l15 -88q-59 -23 -169.5 -36.5t-203.5 -13.5q-169 0 -270 52.5t-148 169.5q-74 -80 -202 -146.5t-265 -66.5q-131 0 -206.5 69.5t-75.5 198.5zM248 264q0 -166 174 -166q95 -2 212.5 46.5t207.5 131.5q-21 92 -21 224v4h-424q-149 -6 -149 -154v-86zM956 535 h424q94 0 132 43.5t36 128.5q-2 103 -67 150.5t-209 47.5q-173 0 -243 -80.5t-73 -289.5z" />
<glyph unicode="&#xe7;" horiz-adv-x="993" d="M123 496q0 287 105 404.5t360 117.5q184 0 305 -45l-21 -84q-109 16 -264 16q-133 0 -207 -36.5t-108.5 -124.5t-34.5 -248t34.5 -248t108.5 -124t207 -36q166 0 289 23l14 -91q-149 -45 -323 -45q-255 0 -360 117t-105 404zM379 -487l20 71q90 -3 146.5 42t58.5 116 q2 43 -24.5 60t-96.5 18l15 63q108 9 156.5 -20t47.5 -113q-3 -122 -93 -189t-230 -48z" />
<glyph unicode="&#xe8;" horiz-adv-x="1093" d="M123 500q0 286 102 402t342 116q211 0 311.5 -76.5t102.5 -232.5q3 -277 -227 -277h-496q6 -101 28 -167.5t65.5 -105.5t103 -55t147.5 -16q146 0 342 25l14 -88q-59 -23 -169.5 -36.5t-204.5 -13.5q-250 0 -355.5 120t-105.5 405zM252 1389l78 98l336 -299l-50 -62z M258 535h465q131 0 127 172q-2 104 -67 151t-210 47q-174 0 -243 -80t-72 -290z" />
<glyph unicode="&#xe9;" horiz-adv-x="1093" d="M123 500q0 286 102 402t342 116q211 0 311.5 -76.5t102.5 -232.5q3 -277 -227 -277h-496q6 -101 28 -167.5t65.5 -105.5t103 -55t147.5 -16q146 0 342 25l14 -88q-59 -23 -169.5 -36.5t-204.5 -13.5q-250 0 -355.5 120t-105.5 405zM258 535h465q131 0 127 172 q-2 104 -67 151t-210 47q-174 0 -243 -80t-72 -290zM451 1188l335 299l76 -98l-364 -263z" />
<glyph unicode="&#xea;" horiz-adv-x="1093" d="M123 500q0 286 102 402t342 116q211 0 311.5 -76.5t102.5 -232.5q3 -277 -227 -277h-496q6 -101 28 -167.5t65.5 -105.5t103 -55t147.5 -16q146 0 342 25l14 -88q-59 -23 -169.5 -36.5t-204.5 -13.5q-250 0 -355.5 120t-105.5 405zM250 1200l272 254h94l275 -254l-47 -57 l-266 205h-17l-264 -205zM258 535h465q131 0 127 172q-2 104 -67 151t-210 47q-174 0 -243 -80t-72 -290z" />
<glyph unicode="&#xeb;" horiz-adv-x="1093" d="M123 500q0 286 102 402t342 116q211 0 311.5 -76.5t102.5 -232.5q3 -277 -227 -277h-496q6 -101 28 -167.5t65.5 -105.5t103 -55t147.5 -16q146 0 342 25l14 -88q-59 -23 -169.5 -36.5t-204.5 -13.5q-250 0 -355.5 120t-105.5 405zM258 535h465q131 0 127 172 q-2 104 -67 151t-210 47q-174 0 -243 -80t-72 -290zM328 1249v113q0 39 39 39h45q37 0 37 -39v-113q0 -41 -37 -41h-45q-39 0 -39 41zM690 1249v113q0 39 39 39h45q39 0 39 -39v-113q0 -41 -39 -41h-45q-39 0 -39 41z" />
<glyph unicode="&#xec;" horiz-adv-x="489" d="M-76 1389l78 98l336 -299l-49 -62zM180 0v991h129v-991h-129z" />
<glyph unicode="&#xed;" horiz-adv-x="489" d="M123 1188l336 299l78 -98l-365 -263zM180 0v991h129v-991h-129z" />
<glyph unicode="&#xee;" horiz-adv-x="489" d="M-78 1200l275 254h94l272 -254l-47 -57l-264 205h-16l-267 -205zM180 0v991h129v-991h-129z" />
<glyph unicode="&#xef;" horiz-adv-x="489" d="M2 1249v113q0 39 37 39h45q39 0 39 -39v-113q0 -41 -39 -41h-45q-37 0 -37 41zM180 0v991h129v-991h-129zM365 1249v113q0 39 38 39h43q39 0 39 -39v-113q0 -41 -39 -41h-43q-38 0 -38 41z" />
<glyph unicode="&#xf0;" horiz-adv-x="1136" d="M125 451q0 228 97 346t317 118q169 0 303 -86q-46 252 -187 377l-170 -125l-47 62l150 112q-133 84 -346 80l16 95q251 11 424 -105l164 123l49 -64l-145 -108q243 -212 243 -701q0 -78 -4.5 -140.5t-16.5 -126.5t-32.5 -112t-53.5 -91.5t-78 -70.5t-108 -43t-141 -16 q-224 0 -329 113.5t-105 362.5zM260 451q0 -197 72 -281t229 -84q65 0 113 15t81 46.5t54 71.5t32 100.5t15 122t4 146.5q0 82 -6 149q-139 68 -301 68q-160 0 -226.5 -90.5t-66.5 -263.5z" />
<glyph unicode="&#xf1;" horiz-adv-x="1181" d="M172 0v991h109l10 -164q249 191 459 191q130 0 198 -69.5t68 -203.5v-745h-129v711q0 105 -40 149.5t-132 44.5q-91 0 -182.5 -40.5t-229.5 -131.5v-733h-131zM291 1206q-9 109 36 165t122 50q42 -3 83 -21.5t69.5 -39t68 -39.5t78.5 -23q58 -6 82 21t24 92h66 q9 -104 -35.5 -159.5t-122.5 -49.5q-47 3 -91.5 22t-73.5 40t-66 40t-70 23q-57 6 -81 -23.5t-24 -97.5h-65z" />
<glyph unicode="&#xf2;" horiz-adv-x="1157" d="M123 496q0 286 103.5 404t353.5 118t352 -118t102 -404t-102 -403.5t-352 -117.5q-251 0 -354 117.5t-103 403.5zM258 1389l78 98l336 -299l-49 -62zM260 496q0 -234 69.5 -322t250.5 -88t250 88t69 322t-69 321.5t-250 87.5t-250.5 -87.5t-69.5 -321.5z" />
<glyph unicode="&#xf3;" horiz-adv-x="1157" d="M123 496q0 286 103.5 404t353.5 118t352 -118t102 -404t-102 -403.5t-352 -117.5q-251 0 -354 117.5t-103 403.5zM260 496q0 -234 69.5 -322t250.5 -88t250 88t69 322t-69 321.5t-250 87.5t-250.5 -87.5t-69.5 -321.5zM457 1188l336 299l75 -98l-364 -263z" />
<glyph unicode="&#xf4;" horiz-adv-x="1157" d="M123 496q0 286 103.5 404t353.5 118t352 -118t102 -404t-102 -403.5t-352 -117.5q-251 0 -354 117.5t-103 403.5zM256 1200l272 254h95l274 -254l-47 -57l-266 205h-17l-264 -205zM260 496q0 -234 69.5 -322t250.5 -88t250 88t69 322t-69 321.5t-250 87.5t-250.5 -87.5 t-69.5 -321.5z" />
<glyph unicode="&#xf5;" horiz-adv-x="1157" d="M123 496q0 286 103.5 404t353.5 118t352 -118t102 -404t-102 -403.5t-352 -117.5q-251 0 -354 117.5t-103 403.5zM260 496q0 -234 69.5 -322t250.5 -88t250 88t69 322t-69 321.5t-250 87.5t-250.5 -87.5t-69.5 -321.5zM262 1206q-9 109 36 165t122 50q42 -3 83 -21.5 t69.5 -39t68 -39.5t78.5 -23q58 -6 82 21t24 92h66q9 -104 -35.5 -159.5t-122.5 -49.5q-47 3 -91.5 22t-73.5 40t-66 40t-70 23q-57 6 -80.5 -23.5t-23.5 -97.5h-66z" />
<glyph unicode="&#xf6;" horiz-adv-x="1157" d="M123 496q0 286 103.5 404t353.5 118t352 -118t102 -404t-102 -403.5t-352 -117.5q-251 0 -354 117.5t-103 403.5zM260 496q0 -234 69.5 -322t250.5 -88t250 88t69 322t-69 321.5t-250 87.5t-250.5 -87.5t-69.5 -321.5zM334 1249v113q0 39 39 39h45q37 0 37 -39v-113 q0 -41 -37 -41h-45q-39 0 -39 41zM696 1249v113q0 39 39 39h45q39 0 39 -39v-113q0 -41 -39 -41h-45q-39 0 -39 41z" />
<glyph unicode="&#xf7;" horiz-adv-x="1181" d="M150 555v100h882v-100h-882zM520 201v108q0 28 11 39.5t38 11.5h37q28 0 39.5 -11.5t11.5 -39.5v-108q0 -27 -11.5 -38t-39.5 -11h-37q-28 0 -38.5 10.5t-10.5 38.5zM520 897v111q0 28 11 39.5t38 11.5h37q28 0 39.5 -11.5t11.5 -39.5v-111q0 -27 -11.5 -38t-39.5 -11 h-37q-28 0 -38.5 10.5t-10.5 38.5z" />
<glyph unicode="&#xf8;" horiz-adv-x="1157" d="M123 496q0 286 103.5 404t353.5 118q106 0 186 -21l61 136l68 -33l-59 -127q105 -50 151.5 -165t46.5 -312q0 -286 -102 -403.5t-352 -117.5q-120 0 -199 23l-66 -141l-67 30l65 138q-100 52 -145 165t-45 306zM260 496q0 -145 24.5 -231t80.5 -128l350 754 q-52 14 -135 14q-181 0 -250.5 -87.5t-69.5 -321.5zM430 104q62 -18 150 -18q181 0 250 88t69 322q0 151 -27.5 237t-89.5 127z" />
<glyph unicode="&#xf9;" horiz-adv-x="1161" d="M166 246v745h129v-710q0 -103 42.5 -148t139.5 -45q84 0 167 38t214 126v739h129v-991h-102l-11 156q-230 -181 -440 -181q-132 0 -200 69t-68 202zM264 1393l78 98l336 -299l-49 -59z" />
<glyph unicode="&#xfa;" horiz-adv-x="1161" d="M166 246v745h129v-710q0 -103 42.5 -148t139.5 -45q84 0 167 38t214 126v739h129v-991h-102l-11 156q-230 -181 -440 -181q-132 0 -200 69t-68 202zM461 1192l336 299l77 -98l-364 -260z" />
<glyph unicode="&#xfb;" horiz-adv-x="1161" d="M166 246v745h129v-710q0 -103 42.5 -148t139.5 -45q84 0 167 38t214 126v739h129v-991h-102l-11 156q-230 -181 -440 -181q-132 0 -200 69t-68 202zM262 1206l273 252h94l274 -252l-47 -57l-266 203h-17l-264 -203z" />
<glyph unicode="&#xfc;" horiz-adv-x="1161" d="M166 246v745h129v-710q0 -103 42.5 -148t139.5 -45q84 0 167 38t214 126v739h129v-991h-102l-11 156q-230 -181 -440 -181q-132 0 -200 69t-68 202zM340 1253v113q0 41 39 41h45q37 0 37 -41v-113q0 -39 -37 -39h-45q-39 0 -39 39zM702 1253v113q0 41 39 41h45 q39 0 39 -41v-113q0 -39 -39 -39h-45q-39 0 -39 39z" />
<glyph unicode="&#xfd;" horiz-adv-x="1067" d="M45 991h139l293 -774q36 -94 41 -115h29l43 117l291 772h139l-418 -1061q-28 -71 -59.5 -125.5t-78 -105.5t-111 -82.5t-144.5 -40.5l-16 84q116 39 181 108.5t107 176.5l25 55h-33q-39 0 -51 35zM418 1188l336 299l77 -98l-364 -263z" />
<glyph unicode="&#xfe;" horiz-adv-x="1167" d="M172 -418v1852h131v-373q0 -131 -8 -201q193 156 385 156q194 0 276 -122t82 -402q0 -284 -83 -400.5t-277 -116.5q-192 0 -381 97q6 -66 6 -189v-301h-131zM303 168q211 -84 338 -84q144 0 204 90.5t60 317.5q0 230 -59 320.5t-199 90.5q-80 0 -160 -36.5t-184 -114.5 v-584z" />
<glyph unicode="&#xff;" horiz-adv-x="1067" d="M45 991h139l293 -774q36 -94 41 -115h29l43 117l291 772h139l-418 -1061q-28 -71 -59.5 -125.5t-78 -105.5t-111 -82.5t-144.5 -40.5l-16 84q116 39 181 108.5t107 176.5l25 55h-33q-39 0 -51 35zM295 1249v113q0 39 39 39h45q39 0 39 -39v-113q0 -41 -39 -41h-45 q-39 0 -39 41zM657 1249v113q0 39 39 39h45q39 0 39 -39v-113q0 -41 -39 -41h-45q-39 0 -39 41z" />
<glyph unicode="&#x152;" horiz-adv-x="1853" d="M137 707q0 277 53 434.5t170 227t322 69.5q107 0 178.5 -14.5t159.5 -51.5q62 43 141 43q396 0 582 -12l-4 -103h-535q-147 0 -147 -149v-346h598v-111h-598v-434q0 -72 37.5 -109.5t109.5 -37.5h535l4 -103q-188 -12 -590 -12q-78 0 -139 45q-84 -38 -155 -53t-177 -15 q-205 0 -322 70t-170 227.5t-53 434.5zM276 707q0 -233 39 -364.5t126 -190t241 -58.5q88 0 143.5 9t116.5 32q-20 55 -20 109v925q0 60 22 109q-121 41 -262 41q-155 0 -241.5 -57t-125.5 -188.5t-39 -366.5z" />
<glyph unicode="&#x153;" horiz-adv-x="1869" d="M123 496q0 286 103.5 404t353.5 118q148 0 241.5 -39.5t143.5 -126.5q50 87 140.5 126.5t231.5 39.5q419 0 422 -297q1 -159 -68.5 -222t-236.5 -63h-420q5 -103 27 -170t65.5 -106.5t103.5 -55.5t150 -16q144 0 340 25l15 -88q-59 -23 -170 -36.5t-205 -13.5 q-150 0 -244.5 40t-146.5 130q-50 -90 -144 -130t-245 -40q-251 0 -354 117.5t-103 403.5zM260 496q0 -234 69.5 -322t250.5 -88q174 0 244.5 80.5t74.5 292.5v43v37q-6 207 -76.5 286.5t-242.5 79.5q-181 0 -250.5 -87.5t-69.5 -321.5zM1034 537h414q102 0 142.5 40.5 t37.5 141.5q-5 94 -75 140t-212 46q-166 0 -234.5 -80.5t-72.5 -283.5v-4z" />
<glyph unicode="&#x178;" horiz-adv-x="1144" d="M31 1413h143l324 -627q27 -53 67 -151h15q30 73 67 149l324 629h141l-473 -907v-506h-133v508zM330 1618v113q0 41 37 41h47q37 0 37 -41v-113q0 -39 -37 -39h-47q-37 0 -37 39zM692 1618v113q0 41 39 41h45q39 0 39 -41v-113q0 -39 -39 -39h-45q-39 0 -39 39z" />
<glyph unicode="&#x192;" horiz-adv-x="876" d="M-106 -274l14 96h141q98 0 141 42t54 146l65 690h-198l6 97l202 8l33 344q12 140 85.5 212.5t217.5 72.5q108 0 191 -13l-15 -98h-145q-105 0 -150.5 -39.5t-54.5 -146.5l-32 -332h311l-10 -105h-312l-65 -702q-12 -143 -79.5 -214t-209.5 -71q-121 0 -190 13z" />
<glyph unicode="&#x2c6;" horiz-adv-x="839" d="M100 1200l273 254h96l272 -254l-47 -57l-266 203h-16l-265 -203z" />
<glyph unicode="&#x2da;" horiz-adv-x="608" d="M94 1305q0 87 61.5 147.5t149.5 60.5q87 0 149 -60.5t62 -147.5t-61.5 -147t-149.5 -60t-149.5 60t-61.5 147zM172 1305q0 -61 37.5 -98.5t95.5 -37.5q57 0 95 38t38 98q0 59 -38.5 98t-94.5 39q-58 0 -95.5 -38.5t-37.5 -98.5z" />
<glyph unicode="&#x2dc;" horiz-adv-x="845" d="M109 1208q-9 109 35.5 165t121.5 50q42 -3 83 -21.5t69.5 -39t68 -39.5t78.5 -23q59 -6 83 21t24 92h65q9 -104 -35 -159.5t-122 -49.5q-47 3 -91.5 22t-73.5 40t-66 40t-70 23q-58 6 -81.5 -23.5t-23.5 -97.5h-65z" />
<glyph unicode="&#x3a9;" horiz-adv-x="1470" d="M109 0v119h235q73 0 133 -8q-165 116 -237 263.5t-72 377.5q0 349 133.5 517.5t433.5 168.5q296 0 432 -170t136 -518q0 -232 -72 -377.5t-238 -261.5q94 8 133 8h236v-119h-498v113q165 114 232 256t69 366q-2 306 -103 445t-327 139q-231 0 -329.5 -138.5t-98.5 -449.5 q0 -160 32.5 -271.5t94.5 -188.5t172 -158v-113h-497z" />
<glyph unicode="&#x3c0;" horiz-adv-x="1314" d="M59 887v104h1196v-104h-204v-887h-129v887h-529v-887h-129v887h-205z" />
<glyph unicode="&#x401;" horiz-adv-x="1140" d="M178 231v951q0 106 67.5 169.5t180.5 63.5q411 0 604 -12l-6 -103h-573q-68 0 -104 -38t-36 -111v-346h631v-109h-631v-436q0 -72 36 -109.5t104 -37.5h573l6 -103q-193 -12 -604 -12q-113 0 -180.5 63.5t-67.5 169.5zM391 1665v113q0 39 37 39h47q37 0 37 -39v-113 q0 -41 -37 -41h-47q-37 0 -37 41zM754 1665v113q0 39 39 39h45q39 0 39 -39v-113q0 -41 -39 -41h-45q-39 0 -39 41z" />
<glyph unicode="&#x402;" horiz-adv-x="1538" d="M51 1294v119h1075v-119h-471v-532q210 137 437 137q81 0 141 -20t108 -67.5t72.5 -132.5t24.5 -208q0 -133 -36.5 -228t-106 -150t-163.5 -78.5t-217 -18.5l-12 96q81 5 139.5 17t110 37.5t83 65.5t49.5 101.5t18 145.5q0 99 -15 162.5t-48.5 98t-77.5 47.5t-111 13 q-106 0 -195 -29.5t-201 -97.5v-653h-135v1294h-469z" />
<glyph unicode="&#x403;" horiz-adv-x="1056" d="M184 0v1169q0 107 68.5 176.5t173.5 69.5q396 0 586 -12l-8 -103h-537q-148 0 -148 -153v-1147h-135zM483 1559l336 299l78 -99l-365 -262z" />
<glyph unicode="&#x404;" horiz-adv-x="1175" d="M137 707q0 273 54 430.5t174.5 229t330.5 71.5q227 0 379 -39l-16 -103q-181 21 -365 21q-218 0 -312 -114t-106 -398h621v-107h-623q1 -172 22.5 -285t72 -185t128.5 -102t197 -30q225 0 379 25l17 -103q-157 -43 -394 -43q-210 0 -330.5 71.5t-174.5 229.5t-54 431z " />
<glyph unicode="&#x405;" horiz-adv-x="1144" d="M121 1069q0 99 18 166t50 107.5t90.5 61.5t122.5 27t165 5q230 0 408 -33l-10 -98q-242 12 -392 12q-50 0 -79 -1t-65 -4.5t-55.5 -10t-42.5 -19t-34.5 -30.5t-22 -44.5t-14.5 -61.5t-4 -81q0 -127 44.5 -183t150.5 -77l294 -62q158 -32 222.5 -122.5t64.5 -264.5 q0 -82 -12 -142.5t-38.5 -102.5t-61.5 -68.5t-90.5 -41t-114 -19.5t-142.5 -5q-233 0 -430 31l9 101q274 -13 426 -13q96 1 151 10t95.5 37.5t55.5 79t15 135.5q0 133 -44 188.5t-153 76.5l-301 63q-149 30 -212.5 121.5t-63.5 261.5z" />
<glyph unicode="&#x406;" horiz-adv-x="514" d="M190 0v1413h134v-1413h-134z" />
<glyph unicode="&#x407;" horiz-adv-x="514" d="M14 1618v113q0 38 37 38h45q39 0 39 -38v-113q0 -41 -39 -41h-45q-37 0 -37 41zM190 0v1413h134v-1413h-134zM377 1618v113q0 38 39 38h43q39 0 39 -38v-113q0 -41 -39 -41h-43q-39 0 -39 41z" />
<glyph unicode="&#x408;" horiz-adv-x="684" d="M68 4l14 94h108q177 0 177 172v1143h135v-1139q0 -142 -67.5 -216t-198.5 -74q-82 0 -168 20z" />
<glyph unicode="&#x409;" horiz-adv-x="1982" d="M47 90q57 25 105 70t96 133q66 122 89.5 258.5t52.5 488.5q3 27 4 42t3 39.5t4 45.5q18 246 267 246h440v-590h322q172 0 269.5 -42t139 -132t41.5 -248q0 -124 -23.5 -204.5t-77.5 -128t-132.5 -66t-198.5 -18.5q-302 0 -473 16v4v1299h-295q-137 0 -150 -154 q-39 -447 -64.5 -604.5t-92.5 -290.5q-57 -116 -131.5 -180t-180.5 -76zM1108 104q80 -2 322 -2q93 0 150 12.5t95 47t53 91.5t15 150q0 88 -13.5 143.5t-49 93.5t-95.5 53.5t-155 15.5h-322v-605z" />
<glyph unicode="&#x40a;" horiz-adv-x="2007" d="M190 0v1413h134v-594h675v594h134v-594h321q130 0 215 -21.5t138.5 -72.5t75.5 -128.5t22 -195.5q0 -124 -23.5 -204.5t-78 -128t-133.5 -66t-200 -18.5q-300 0 -471 16v707h-675v-707h-134zM1133 104q78 -2 321 -2q94 0 151 12.5t95 46.5t52.5 91t14.5 149 q0 87 -13.5 142.5t-48.5 93.5t-95.5 54t-155.5 16h-321v-603z" />
<glyph unicode="&#x40b;" horiz-adv-x="1599" d="M51 1294v119h1075v-119h-471v-534q247 139 506 139q159 0 236.5 -77t77.5 -234v-588h-134v561q0 117 -51.5 167t-171.5 50q-124 0 -227 -28.5t-236 -100.5v-649h-135v1294h-469z" />
<glyph unicode="&#x40c;" horiz-adv-x="1208" d="M190 0v1413h134v-457q0 -77 -13 -163h176q51 0 97 17.5t80.5 40.5t70.5 72t58.5 86t55 110.5t49.5 116.5t50 132q11 30 17 45h135q-99 -266 -133 -342q-98 -216 -211 -288q-59 -37 -127 -44v-4q44 -4 82.5 -16t73.5 -42t60.5 -52.5t57 -78t49 -85t49.5 -108t45 -112.5 t49 -130q27 -73 42 -111h-142q-111 290 -122 318q-86 204 -173 283q-87 80 -213 81h-176q13 -89 13 -160v-522h-134zM489 1559l336 299l76 -99l-364 -262z" />
<glyph unicode="&#x40d;" horiz-adv-x="1404" d="M190 0v1413h129v-1079q0 -80 -6 -160h6q41 79 80 148l680 1091h138v-1413h-132v1087q0 63 7 156h-7q-58 -118 -73 -143l-686 -1100h-136zM389 1759l78 99l336 -299l-49 -62z" />
<glyph unicode="&#x40e;" horiz-adv-x="1132" d="M55 1413h138l307 -848q13 -37 53 -37h88l324 885h137l-393 -1071q-24 -65 -41 -106.5t-45 -92t-55.5 -80t-67.5 -51t-86 -24.5q-49 -4 -119 3.5t-117 22.5l17 97q55 -6 89.5 -9.5t69 -0.5t53.5 6t41.5 19t34 29t29.5 46.5t29.5 61t33.5 81.5l27 70h-84q-91 0 -127 88z M270 1790l72 12q0 -79 60 -123.5t167 -44.5q105 0 165 44.5t59 123.5l71 -12q5 -116 -75.5 -186t-219.5 -70q-141 0 -222.5 70t-76.5 186z" />
<glyph unicode="&#x40f;" horiz-adv-x="1374" d="M190 0v1413h134v-1302h727v1302h135v-1413h-441l-8 -309h-92l-10 309h-445z" />
<glyph unicode="&#x410;" horiz-adv-x="1259" d="M27 0l473 1374q12 39 53 39h154q41 0 53 -39l473 -1374h-139l-156 467h-616l-156 -467h-139zM360 584h539l-203 608q-4 14 -17.5 54t-19.5 61h-57l-39 -115z" />
<glyph unicode="&#x411;" horiz-adv-x="1220" d="M190 0v1413q235 10 428 10q188 0 416 -10l-10 -110h-700v-515h335q253 0 351 -89.5t98 -315.5q0 -86 -11.5 -149t-38.5 -107.5t-62.5 -72t-91.5 -43.5t-117 -21.5t-148 -5.5q-270 0 -446 16h-3zM324 102q164 -4 335 -4q93 0 150 11.5t95.5 44.5t53.5 88t15 145 q0 114 -26 175t-93.5 89.5t-194.5 28.5h-335v-578z" />
<glyph unicode="&#x412;" horiz-adv-x="1263" d="M190 0v1413q164 17 437 17q133 0 218 -16.5t142 -59t81 -113t24 -180.5q0 -154 -57 -233t-183 -91v-8q153 -13 218 -107t65 -270q0 -110 -23.5 -180.5t-79 -112.5t-137 -58.5t-207.5 -16.5q-322 0 -498 16zM322 102q172 -4 350 -4q187 0 256 55t69 218q0 92 -17 150 t-59.5 93.5t-104.5 49.5t-161 16h-333v-578zM322 784h333q88 1 143.5 12.5t93.5 41.5t53.5 80t15.5 129q0 82 -17 133.5t-59 82t-103 41.5t-159 11q-225 0 -301 -2v-529z" />
<glyph unicode="&#x413;" horiz-adv-x="1056" d="M184 0v1169q0 107 68.5 176.5t173.5 69.5q396 0 586 -12l-8 -103h-537q-148 0 -148 -153v-1147h-135z" />
<glyph unicode="&#x414;" horiz-adv-x="1390" d="M47 111h131q109 218 156 477t61 579q3 117 71 181.5t189 64.5h494v-1302h172v-420h-92l-17 309h-1056l-15 -309h-94v420zM309 111h707v1192h-338q-77 0 -114 -36.5t-40 -115.5q-15 -333 -62 -582t-153 -458z" />
<glyph unicode="&#x415;" horiz-adv-x="1140" d="M178 231v951q0 106 67.5 169.5t180.5 63.5q411 0 604 -12l-6 -103h-573q-68 0 -104 -38t-36 -111v-346h631v-109h-631v-436q0 -72 36 -109.5t104 -37.5h573l6 -103q-193 -12 -604 -12q-113 0 -180.5 63.5t-67.5 169.5z" />
<glyph unicode="&#x416;" horiz-adv-x="1837" d="M72 0q111 300 140 366q93 216 193 298q75 62 173 71v4q-48 5 -91.5 27t-76 47t-68.5 79.5t-57 90t-54.5 115.5t-48.5 119t-50 134q-5 14 -8 21.5t-7 19t-8 21.5h137q98 -254 136 -333q95 -198 206 -257q56 -30 123 -30h159q-10 88 -10 163v457h129v-457q0 -97 -10 -163 h145q48 0 91 16t77 42t67.5 70t58.5 87t54 107.5t50 117.5t50 130q13 33 19 50h138q-99 -266 -135 -346q-99 -216 -214 -286q-57 -35 -123 -42v-4q45 -4 85 -18.5t74 -40.5t63 -57.5t57 -78t51 -92t49 -108.5t47.5 -119.5t49.5 -133.5q21 -57 32 -87h-143q-111 291 -127 329 q-86 202 -174 280q-82 72 -197 73h-147q12 -82 12 -160v-522h-129v522q0 50 12 160h-159q-148 -1 -248 -130q-71 -92 -162 -321q-16 -38 -47 -121l-43 -110h-141z" />
<glyph unicode="&#x417;" horiz-adv-x="1122" d="M80 23l14 98q275 -25 434 -25q94 0 152.5 11.5t99 42.5t56.5 84t16 137q0 179 -74 243t-266 64h-225v108h225q171 0 236 54t65 207q0 84 -16.5 135.5t-58 82t-101 41.5t-156.5 11q-72 0 -141.5 -3.5t-133 -9t-81.5 -6.5l-14 101q168 31 376 31q132 0 216 -16.5t141 -59 t80.5 -113t23.5 -180.5q0 -154 -56.5 -233t-180.5 -91v-8q151 -13 214.5 -106.5t63.5 -270.5q0 -110 -23 -180.5t-78 -112.5t-135 -58.5t-204 -16.5q-285 0 -469 39z" />
<glyph unicode="&#x418;" horiz-adv-x="1404" d="M190 0v1413h129v-1079q0 -80 -6 -160h6q41 79 80 148l680 1091h138v-1413h-132v1087q0 63 7 156h-7q-58 -118 -73 -143l-686 -1100h-136z" />
<glyph unicode="&#x419;" horiz-adv-x="1404" d="M190 0v1413h129v-1079q0 -80 -6 -160h6q41 79 80 148l680 1091h138v-1413h-132v1087q0 63 7 156h-7q-58 -118 -73 -143l-686 -1100h-136zM408 1804h104q0 -93 51.5 -143.5t143.5 -50.5q90 0 141 50.5t51 143.5h102q6 -119 -74.5 -194.5t-219.5 -75.5t-221.5 76t-77.5 194 z" />
<glyph unicode="&#x41a;" horiz-adv-x="1208" d="M190 0v1413h134v-457q0 -77 -13 -163h176q51 0 97 17.5t80.5 40.5t70.5 72t58.5 86t55 110.5t49.5 116.5t50 132q11 30 17 45h135q-99 -266 -133 -342q-98 -216 -211 -288q-59 -37 -127 -44v-4q44 -4 82.5 -16t73.5 -42t60.5 -52.5t57 -78t49 -85t49.5 -108t45 -112.5 t49 -130q27 -73 42 -111h-142q-111 290 -122 318q-86 204 -173 283q-87 80 -213 81h-176q13 -89 13 -160v-522h-134z" />
<glyph unicode="&#x41b;" horiz-adv-x="1318" d="M25 102q63 24 112 67t90 124q66 130 91 283t63 595q21 242 258 242h491v-1413h-135v1303h-323q-148 0 -160 -154q-38 -441 -64 -602.5t-96 -292.5q-114 -236 -315 -256z" />
<glyph unicode="&#x41c;" horiz-adv-x="1779" d="M162 0l57 1354q0 59 60 59h161q45 0 60 -47l309 -922q46 -153 57 -192h45q10 38 32 106.5t28 87.5l309 920q12 47 59 47h160q60 0 60 -59l59 -1354h-133l-55 1300h-46l-366 -1107q-15 -46 -62 -46h-135q-46 0 -61 46l-369 1107h-43l-53 -1300h-133z" />
<glyph unicode="&#x41d;" horiz-adv-x="1359" d="M190 0v1413h134v-600h710v600h135v-1413h-135v698h-710v-698h-134z" />
<glyph unicode="&#x41e;" d="M137 707q0 277 53 434.5t170 227t322 69.5t322 -69.5t170 -227t53 -434.5t-53 -434.5t-170 -227.5t-322 -70t-322 70t-170 227.5t-53 434.5zM276 707q0 -233 39 -364.5t126 -190t241 -58.5t240.5 58.5t124.5 190t38 364.5t-38 364t-124.5 189.5t-240.5 58.5t-241 -58 t-126 -189.5t-39 -364.5z" />
<glyph unicode="&#x41f;" d="M190 0v1413h986v-1413h-136v1303h-716v-1303h-134z" />
<glyph unicode="&#x420;" horiz-adv-x="1202" d="M190 0v1413q182 17 474 17q126 0 206.5 -20t134 -70t75.5 -132.5t22 -210.5q0 -129 -22 -211.5t-74 -132t-129.5 -69t-198.5 -19.5q-165 0 -352 17v-582h-136zM326 682h336q88 1 143 15t92.5 50t52.5 95.5t15 154.5q0 186 -65.5 252t-237.5 66t-336 -4v-629z" />
<glyph unicode="&#x421;" horiz-adv-x="1161" d="M137 707q0 205 28 342t93 225t166.5 126t253.5 38q129 0 210 -8.5t167 -30.5l-17 -101q-164 19 -360 19q-152 0 -238 -57.5t-125 -188.5t-39 -364q0 -140 13.5 -240t42 -173t76.5 -115.5t113.5 -62.5t156.5 -20q227 0 389 23l16 -101q-160 -43 -405 -43q-152 0 -253.5 38 t-166.5 126.5t-93 225.5t-28 342z" />
<glyph unicode="&#x422;" horiz-adv-x="1177" d="M51 1294v119h1075v-119h-471v-1294h-135v1294h-469z" />
<glyph unicode="&#x423;" horiz-adv-x="1132" d="M55 1413h138l307 -848q13 -37 53 -37h88l324 885h137l-393 -1071q-24 -65 -41 -106.5t-45 -92t-55.5 -80t-67.5 -51t-86 -24.5q-49 -4 -119 3.5t-117 22.5l17 97q55 -6 89.5 -9.5t69 -0.5t53.5 6t41.5 19t34 29t29.5 46.5t29.5 61t33.5 81.5l27 70h-84q-91 0 -127 88z " />
<glyph unicode="&#x424;" horiz-adv-x="1681" d="M121 723q0 166 34.5 278.5t113.5 185t201 106t304 38.5v205h135v-205q145 -4 251 -26.5t184 -66.5t125 -115.5t69.5 -169t22.5 -230.5q0 -163 -34.5 -273.5t-113.5 -183t-200.5 -106.5t-303.5 -39v-205h-135v205q-182 5 -304 38.5t-201 106t-113.5 183t-34.5 274.5z M260 723q0 -138 26 -228t88.5 -147.5t158.5 -82.5t245 -29v983q-149 -4 -245 -29.5t-158.5 -84t-88.5 -150t-26 -232.5zM903 236q149 4 245 29t159 82.5t89 147.5t27 228q-1 141 -27 232t-89 149.5t-159 84t-245 30.5v-983z" />
<glyph unicode="&#x425;" horiz-adv-x="1245" d="M63 0l416 733l-389 680h148l352 -625h65l351 625h149l-391 -680l418 -733h-150l-381 684h-59l-381 -684h-148z" />
<glyph unicode="&#x426;" horiz-adv-x="1400" d="M190 0v1413h134v-1302h700v1302h135v-1302h170v-420h-92l-14 309h-1033z" />
<glyph unicode="&#x427;" horiz-adv-x="1265" d="M131 838v575h133v-549q0 -114 50.5 -165.5t164.5 -51.5q123 0 226 29t237 102v635h135v-1413h-135v672q-245 -146 -508 -146q-153 0 -228 77.5t-75 234.5z" />
<glyph unicode="&#x428;" horiz-adv-x="1882" d="M190 0v1413h132v-1302h555v1302h131v-1302h553v1302h133v-1413h-1504z" />
<glyph unicode="&#x429;" horiz-adv-x="1916" d="M190 0v1413h132v-1302h546v1302h131v-1302h547v1302h131v-1302h170v-420h-92l-16 309h-1549z" />
<glyph unicode="&#x42a;" horiz-adv-x="1527" d="M51 1294v119h594v-590h330q172 0 269.5 -42t139 -132t41.5 -248q0 -124 -23.5 -204.5t-77.5 -128t-132.5 -66t-198.5 -18.5q-309 0 -483 16v1294h-459zM645 104q80 -2 330 -2q94 0 151 12.5t95 46.5t52.5 91t14.5 149q0 88 -13.5 143.5t-49 94t-95.5 54.5t-155 16h-330 v-605z" />
<glyph unicode="&#x42b;" horiz-adv-x="1705" d="M190 0v1413h134v-590h333q172 0 269.5 -42t139.5 -132t42 -248q0 -124 -23.5 -204.5t-77.5 -128t-132.5 -66t-198.5 -18.5q-309 0 -483 16h-3zM324 104q82 -2 333 -2q94 0 151 12.5t95.5 46.5t53 91t14.5 149q0 88 -13.5 143.5t-49 94t-96 54.5t-155.5 16h-333v-605z M1382 0v1413h134v-1413h-134z" />
<glyph unicode="&#x42c;" horiz-adv-x="1210" d="M190 0v1413h134v-590h333q172 0 269.5 -42t139.5 -132t42 -248q0 -124 -23.5 -204.5t-77.5 -128t-132.5 -66t-198.5 -18.5q-309 0 -483 16h-3zM324 104q82 -2 333 -2q94 0 151 12.5t95.5 46.5t53 91t14.5 149q0 88 -13.5 143.5t-49 94t-96 54.5t-155.5 16h-333v-605z" />
<glyph unicode="&#x42d;" horiz-adv-x="1175" d="M86 18l18 103q151 -25 377 -25q119 0 197.5 30t129 102.5t72 186t21.5 285.5h-622v107h620q-10 282 -105 396t-313 114q-183 0 -362 -21l-19 103q87 22 169.5 30.5t211.5 8.5q157 0 261.5 -38t172 -126t96.5 -225t29 -342q0 -273 -54.5 -431t-175 -229.5t-329.5 -71.5 q-133 0 -220 9.5t-175 33.5z" />
<glyph unicode="&#x42e;" horiz-adv-x="1873" d="M193 0v1413h133v-622h344q7 244 61 384t163.5 201.5t295.5 61.5q205 0 322.5 -69.5t171 -227t53.5 -434.5t-53.5 -434.5t-171 -227.5t-322.5 -70q-193 0 -304 67.5t-162.5 219.5t-53.5 418h-344v-680h-133zM803 707q0 -233 36.5 -364.5t119.5 -190t231 -58.5 q154 0 240.5 58.5t125 190t39.5 364.5q-1 233 -39.5 364t-125 189.5t-240.5 58.5q-148 0 -231 -58.5t-119.5 -189.5t-36.5 -364z" />
<glyph unicode="&#x42f;" horiz-adv-x="1247" d="M96 0l140 432q27 84 74 133.5t106 63.5l-2 12q-87 13 -145 65.5t-83.5 129.5t-25.5 180q0 226 101.5 320t332.5 94q287 0 463 -17v-1413h-133v592q-164 -4 -349 -4q-75 0 -124 -38t-78 -124l-133 -426h-144zM295 1010q0 -147 66.5 -226t216.5 -79h346v606q-160 4 -328 4 q-163 0 -231.5 -66t-69.5 -239z" />
<glyph unicode="&#x430;" horiz-adv-x="1120" d="M119 252v115q0 115 67.5 178t192.5 63h444v105q0 99 -46.5 145.5t-164.5 46.5q-174 0 -440 -28l-12 96q304 45 477 45q159 0 238 -70.5t79 -234.5v-713h-102l-16 174q-74 -74 -191.5 -132t-243.5 -58q-131 0 -206.5 69.5t-75.5 198.5zM250 264q0 -85 42.5 -125.5 t131.5 -40.5q90 -2 201.5 44t197.5 124v238h-424q-149 -6 -149 -154v-86z" />
<glyph unicode="&#x431;" horiz-adv-x="1165" d="M156 604q0 119 5 203.5t19.5 167t41 139.5t69 108t104.5 86t146 60q41 12 127.5 30t150.5 41t135 68l33 -100q-71 -46 -131.5 -69.5t-154.5 -43t-119 -26.5q-85 -25 -143.5 -63t-92 -90.5t-50 -106.5t-24.5 -127q-12 -66 -16 -144h4q13 36 28 63.5t45 59.5t69 53 t102.5 35.5t142.5 14.5q217 0 304 -110t87 -374q0 -98 -11 -171t-40 -138.5t-77.5 -106.5t-126.5 -64.5t-185 -23.5q-61 0 -112.5 7t-92.5 23t-73.5 35.5t-56 49.5t-41.5 60t-29.5 72.5t-19 81.5t-11.5 92.5t-5 99.5t-1 108zM291 481q0 -222 69 -307.5t240 -85.5 q170 0 236.5 85t66.5 308q0 212 -62 290.5t-227 78.5q-81 0 -139 -17t-93.5 -46.5t-56 -77.5t-27.5 -101t-7 -127z" />
<glyph unicode="&#x432;" horiz-adv-x="1128" d="M172 0v989q145 12 387 12q233 0 323.5 -55t90.5 -209q0 -106 -51.5 -161t-163.5 -64v-4q135 -10 192.5 -74.5t57.5 -187.5q0 -149 -87.5 -203.5t-306.5 -54.5q-278 0 -442 12zM295 92h301q160 0 220.5 35.5t60.5 140.5q0 111 -64.5 153t-228.5 42h-289v-371zM295 559h289 q150 0 207 34.5t57 133.5q0 101 -64 136.5t-229 35.5h-260v-340z" />
<glyph unicode="&#x433;" horiz-adv-x="929" d="M168 0v786q0 101 54 155t155 54q340 0 502 -12l-5 -94h-446q-68 0 -99.5 -32t-31.5 -101v-756h-129z" />
<glyph unicode="&#x434;" horiz-adv-x="1173" d="M59 106h109q139 254 164 672q12 213 231 213h395v-885h127v-403h-86l-14 297h-825l-13 -297h-88v403zM287 106h547v783h-250q-124 0 -133 -129q-11 -200 -48.5 -360t-115.5 -294z" />
<glyph unicode="&#x435;" horiz-adv-x="1095" d="M125 500q0 286 102 402t342 116q211 0 311.5 -76.5t102.5 -232.5q3 -277 -227 -277h-496q6 -101 28 -167.5t65 -105.5t102 -55t147 -16q148 0 344 25l15 -88q-59 -23 -170 -36.5t-205 -13.5q-250 0 -355.5 120t-105.5 405zM260 535h465q131 0 127 172q-2 104 -67 151 t-210 47q-174 0 -243 -80t-72 -290z" />
<glyph unicode="&#x436;" horiz-adv-x="1593" d="M78 0q91 234 129 306q71 136 162 181q47 23 106 29v4q-57 5 -105 34.5t-77.5 57.5t-69.5 107.5t-55 115.5t-60 152q-1 3 -2 4h134q27 -67 41.5 -101.5t39 -88t42.5 -81t45 -62t53 -51t59.5 -28.5t71.5 -12h160q-9 55 -9 117v307h117v-307q0 -68 -8 -117h149q30 0 57 7 t49.5 17.5t45 31.5t39 39.5t36 51.5t33 58t32.5 68t31 71.5t32 79.5h133q-83 -215 -127 -292q-79 -137 -188 -169q-25 -7 -54 -10v-4q44 -4 80.5 -18.5t65.5 -35t57 -56.5t49 -70.5t46 -91t44 -105t48 -123.5q4 -11 6 -16h-134q-93 222 -118 272q-66 128 -141 168 q-49 26 -113 27h-158q8 -49 8 -107v-360h-117v360q0 39 11 107h-168q-38 0 -70.5 -10t-58 -25t-50.5 -44.5t-43.5 -58t-41.5 -76.5t-40.5 -89t-44.5 -106q-16 -38 -24 -58h-135z" />
<glyph unicode="&#x437;" horiz-adv-x="999" d="M84 10l12 101q215 -17 355 -17q166 0 227 38.5t61 137.5q0 107 -62 147t-222 42h-222v98h220q151 0 205.5 35.5t54.5 136.5q0 102 -64.5 135t-245.5 33q-171 0 -280 -16l-12 98q123 29 295 29q247 0 341.5 -54t94.5 -209q0 -112 -46.5 -167.5t-162.5 -65.5v-4 q129 -10 185 -73t56 -191q0 -146 -93.5 -203t-321.5 -57q-206 0 -375 26z" />
<glyph unicode="&#x438;" horiz-adv-x="1198" d="M174 0v991h117v-708q0 -82 -2 -127h4q37 68 67 106l558 729h106v-991h-119v713q0 37 4 123h-4q-21 -45 -65 -105l-559 -731h-107z" />
<glyph unicode="&#x439;" horiz-adv-x="1198" d="M174 0v991h117v-708q0 -82 -2 -127h4q37 68 67 106l558 729h106v-991h-119v713q0 37 4 123h-4q-21 -45 -65 -105l-559 -731h-107zM287 1434h104q0 -93 52 -144t143 -51q90 0 141 51t51 144h103q6 -117 -75 -194t-220 -77t-221.5 77t-77.5 194z" />
<glyph unicode="&#x43a;" horiz-adv-x="1083" d="M174 0v991h129v-307q0 -52 -10 -117h164q31 0 58.5 5t52.5 16.5t45.5 23.5t41 34.5t36 40.5t33.5 50t30 54.5t30 62.5t28.5 65.5t29.5 71.5h135q-88 -210 -131 -283q-79 -135 -185 -173q-34 -13 -73 -17v-4q46 -4 85 -17.5t70.5 -35.5t59.5 -55.5t51.5 -71.5t48.5 -91 t47.5 -106.5t50.5 -123.5q3 -9 5 -13h-138q-91 217 -127 280q-67 121 -152 160q-53 24 -124 25h-170q8 -70 8 -105v-360h-129z" />
<glyph unicode="&#x43b;" horiz-adv-x="1132" d="M43 92q74 23 113.5 59t62.5 91q13 30 24.5 65.5t20.5 82t15.5 78.5t13.5 89.5t9.5 77t8.5 79.5t6 62q14 110 70.5 162.5t169.5 52.5h401v-991h-131v889h-252q-65 0 -96 -30.5t-39 -100.5q-2 -18 -9.5 -80t-11 -88.5t-11 -80.5t-14 -86.5t-16 -76.5t-20.5 -79t-24 -66 q-74 -193 -277 -211z" />
<glyph unicode="&#x43c;" horiz-adv-x="1511" d="M152 0l45 940q0 51 53 51h143q38 0 53 -43l242 -616q30 -79 49 -142h35q35 106 49 142l242 616q15 43 55 43h144q53 0 53 -51l45 -940h-121l-43 891h-37l-295 -746q-15 -43 -53 -43h-113q-40 0 -55 43l-293 746h-37l-41 -891h-120z" />
<glyph unicode="&#x43d;" horiz-adv-x="1179" d="M174 0v991h127v-411h578v411h129v-991h-129v477h-578v-477h-127z" />
<glyph unicode="&#x43e;" horiz-adv-x="1161" d="M125 496q0 286 103.5 404t353.5 118t352 -118t102 -404t-102 -403.5t-352 -117.5q-251 0 -354 117.5t-103 403.5zM260 496q0 -158 31 -246t99.5 -126t191.5 -38q180 0 249.5 88.5t69.5 321.5t-69.5 321t-249.5 88q-123 0 -191.5 -37.5t-99.5 -125.5t-31 -246z" />
<glyph unicode="&#x43f;" horiz-adv-x="1169" d="M174 0v991h821v-991h-127v887h-567v-887h-127z" />
<glyph unicode="&#x440;" horiz-adv-x="1177" d="M174 -418v1409h107l12 -164q91 91 198 141t211 50q185 0 267 -127.5t82 -398.5q0 -281 -87.5 -399t-283.5 -118q-192 0 -383 105q9 -81 6 -197v-301h-129zM303 164q123 -40 197 -57t153 -17q98 0 154 36t83.5 124t27.5 244q0 225 -58 317t-194 92q-83 0 -165.5 -40 t-197.5 -130v-569z" />
<glyph unicode="&#x441;" horiz-adv-x="997" d="M125 496q0 287 105 404.5t360 117.5q184 0 305 -45l-21 -84q-109 16 -264 16q-133 0 -207 -36.5t-108.5 -124.5t-34.5 -248t34.5 -248t108.5 -124t207 -36q166 0 289 23l14 -91q-149 -45 -323 -45q-255 0 -360 117t-105 404z" />
<glyph unicode="&#x442;" horiz-adv-x="989" d="M57 885v106h877v-106h-375v-885h-129v885h-373z" />
<glyph unicode="&#x443;" horiz-adv-x="1069" d="M47 991h139l293 -774q30 -79 41 -115h29l43 117l291 772h139l-418 -1061q-78 -203 -182 -282q-126 -93 -334 -64l12 88q154 -7 242 54q79 63 141 219l25 55h-33q-39 0 -51 35z" />
<glyph unicode="&#x444;" horiz-adv-x="1456" d="M123 496q0 270 124.5 390.5t420.5 129.5v418h120v-418q295 -9 420 -129.5t125 -390.5t-125 -390.5t-420 -130.5v-393h-120v393q-296 10 -420.5 130.5t-124.5 390.5zM250 496q0 -112 22 -187t73 -123.5t129.5 -71t197.5 -26.5v817q-234 -8 -328 -98t-94 -311zM786 88 q233 8 326.5 98t93.5 310t-93.5 310t-326.5 99v-817z" />
<glyph unicode="&#x445;" horiz-adv-x="1069" d="M57 0l349 514l-322 477h143l281 -422h53l281 422h143l-321 -477l346 -514h-144l-309 465h-45l-309 -465h-146z" />
<glyph unicode="&#x446;" horiz-adv-x="1196" d="M174 0v991h129v-885h549v885h129v-885h127v-399h-88l-14 293h-832z" />
<glyph unicode="&#x447;" horiz-adv-x="1069" d="M119 571v420h129v-381q0 -77 35 -111t112 -34q97 0 182 18.5t189 63.5v444h129v-991h-129v442q-202 -86 -412 -86q-235 0 -235 215z" />
<glyph unicode="&#x448;" horiz-adv-x="1632" d="M174 0v991h127v-885h455v885h118v-885h459v885h125v-991h-1284z" />
<glyph unicode="&#x449;" horiz-adv-x="1677" d="M174 0v991h127v-885h457v885h116v-885h461v885h125v-885h127v-399h-88l-14 293h-1311z" />
<glyph unicode="&#x44a;" horiz-adv-x="1288" d="M55 887v104h488v-403h264q219 0 302 -66t83 -235q0 -89 -20 -146.5t-66.5 -91.5t-113 -47.5t-167.5 -13.5q-257 0 -409 12v887h-361zM543 94q29 0 117.5 -1t146.5 -1q143 0 197.5 40.5t54.5 160.5q0 112 -53 154t-199 42h-264v-395z" />
<glyph unicode="&#x44b;" horiz-adv-x="1443" d="M174 0v991h125v-403h268q206 0 284.5 -66.5t78.5 -234.5q0 -173 -77 -236t-267 -63q-258 0 -410 12h-2zM299 94q29 0 118.5 -1t149.5 -1q130 0 180 40.5t50 160.5q0 111 -49 153.5t-181 42.5h-268v-395zM1139 0v991h129v-991h-129z" />
<glyph unicode="&#x44c;" horiz-adv-x="1048" d="M174 0v991h125v-403h268q219 0 302 -66t83 -235q0 -89 -20 -146.5t-66 -91.5t-112.5 -47.5t-167.5 -13.5q-258 0 -410 12h-2zM299 94q29 0 118.5 -1t149.5 -1q143 0 197.5 40.5t54.5 160.5q0 112 -53 154t-199 42h-268v-395z" />
<glyph unicode="&#x44d;" horiz-adv-x="1019" d="M88 16l16 93q141 -15 318 -15q187 0 261.5 77.5t78.5 285.5h-512v98h512q-9 190 -84.5 264t-255.5 74q-164 0 -307 -14l-15 92q70 20 138.5 26.5t183.5 6.5q263 0 368 -113.5t105 -398.5q0 -282 -105.5 -396t-367.5 -114q-203 0 -334 34z" />
<glyph unicode="&#x44e;" horiz-adv-x="1607" d="M174 0v991h129v-428h279q9 257 107 356t331 99q131 0 217 -25t142.5 -86.5t80 -159.5t23.5 -249q0 -197 -45.5 -308t-144 -158.5t-273.5 -47.5q-239 0 -336.5 104t-101.5 373h-279v-461h-129zM707 500q0 -230 67 -318t244 -88q186 0 257 88t73 318q-1 231 -72.5 318 t-257.5 87q-120 0 -186.5 -37.5t-95.5 -124t-29 -243.5z" />
<glyph unicode="&#x44f;" horiz-adv-x="1099" d="M94 0l92 293q17 60 70.5 91.5t124.5 39.5v6q-236 20 -236 285q0 137 81 211.5t272 74.5q278 0 428 -14v-987h-127v381h-289q-84 0 -136 -30.5t-67 -86.5l-78 -264h-135zM274 694q0 -112 53.5 -163.5t188.5 -51.5h283v412q-72 2 -299 2q-127 0 -176.5 -49t-49.5 -150z" />
<glyph unicode="&#x451;" horiz-adv-x="1095" d="M125 500q0 286 102 402t342 116q211 0 311.5 -76.5t102.5 -232.5q3 -277 -227 -277h-496q6 -101 28 -167.5t65 -105.5t102 -55t147 -16q148 0 344 25l15 -88q-59 -23 -170 -36.5t-205 -13.5q-250 0 -355.5 120t-105.5 405zM260 535h465q131 0 127 172q-2 104 -67 151 t-210 47q-174 0 -243 -80t-72 -290zM330 1249v113q0 39 39 39h45q37 0 37 -39v-113q0 -41 -37 -41h-45q-39 0 -39 41zM692 1249v113q0 39 39 39h45q39 0 39 -39v-113q0 -41 -39 -41h-45q-39 0 -39 41z" />
<glyph unicode="&#x452;" horiz-adv-x="1183" d="M59 1024v80h158v330h131v-330h406v-80h-404v-203q0 -95 -10 -180q247 176 453 176q133 0 201.5 -69t68.5 -203v-545h-131v512q0 99 -44.5 142.5t-146.5 43.5q-88 0 -176 -36t-217 -119v-543h-131v1024h-158z" />
<glyph unicode="&#x453;" horiz-adv-x="929" d="M168 0v786q0 101 54 155t155 54q340 0 502 -12l-5 -94h-446q-68 0 -99.5 -32t-31.5 -101v-756h-129zM418 1188l336 299l77 -98l-364 -263z" />
<glyph unicode="&#x454;" horiz-adv-x="1021" d="M127 492q0 193 46 303.5t147 159.5t278 49q115 0 184.5 -6.5t139.5 -26.5l-17 -92q-140 14 -307 14q-179 0 -254 -74t-84 -264h512v-98h-514q4 -207 79 -285t261 -78q179 0 320 15l14 -93q-128 -34 -334 -34q-261 0 -366 114t-105 396z" />
<glyph unicode="&#x455;" horiz-adv-x="1038" d="M113 748q0 71 15.5 119.5t43 78.5t77 46t105 21.5t140.5 4.5q217 -3 405 -31l-12 -94q-246 12 -377 12q-42 1 -77 0t-63 -3t-49 -8.5t-36.5 -17.5t-25.5 -28.5t-14.5 -41.5t-4.5 -58q0 -44 9 -73t30 -47t46 -28t66 -18l305 -58q119 -24 174.5 -84.5t55.5 -181.5 q0 -73 -17.5 -123.5t-47.5 -81.5t-84.5 -48t-113.5 -22.5t-149 -5.5q-204 0 -379 27l10 96q162 -15 347 -12q74 1 121 5t86 14t59 29t30.5 48.5t10.5 73.5q0 81 -39.5 113.5t-122.5 48.5l-303 57q-116 24 -168.5 86.5t-52.5 184.5z" />
<glyph unicode="&#x456;" horiz-adv-x="491" d="M174 1247v119q0 43 41 43h61q43 0 43 -43v-119q0 -43 -43 -43h-61q-41 0 -41 43zM182 0v991h129v-991h-129z" />
<glyph unicode="&#x457;" horiz-adv-x="491" d="M2 1249v113q0 39 39 39h45q37 0 37 -39v-113q0 -41 -37 -41h-45q-39 0 -39 41zM182 0v991h129v-991h-129zM365 1249v113q0 39 38 39h46q38 0 38 -39v-113q0 -41 -38 -41h-46q-38 0 -38 41z" />
<glyph unicode="&#x458;" horiz-adv-x="493" d="M70 -365q57 73 84.5 147.5t27.5 168.5v1040h129v-1040q0 -111 -45.5 -207.5t-126.5 -165.5zM174 1247v119q0 43 43 43h59q43 0 43 -43v-119q0 -43 -43 -43h-59q-43 0 -43 43z" />
<glyph unicode="&#x459;" horiz-adv-x="1619" d="M59 88q38 17 60.5 30t51.5 40t50 65q48 84 66 172t45 344q5 45 8 70q18 182 213 182h354v-391h244q212 0 292.5 -67.5t80.5 -239.5q0 -78 -15 -132t-43 -88t-76.5 -52.5t-105.5 -25.5t-141 -7q-218 0 -361 12v893h-200q-59 0 -88 -25t-35 -82q-29 -282 -49.5 -392.5 t-69.5 -205.5q-77 -173 -266 -192zM907 94q61 -2 215 -2q80 0 126 6.5t81 28.5t48.5 62t13.5 108q0 116 -51 161.5t-189 45.5h-244v-410z" />
<glyph unicode="&#x45a;" horiz-adv-x="1640" d="M174 0v991h121v-395h508v395h123v-393h248q210 0 289 -67t79 -236q0 -91 -19 -150t-63 -94t-108 -49t-162 -14q-242 0 -387 12v500h-508v-500h-121zM926 94q63 -2 248 -2q135 0 186 41t51 164q0 116 -50 160.5t-187 44.5h-248v-408z" />
<glyph unicode="&#x45b;" horiz-adv-x="1183" d="M59 1024v80h158v330h131v-330h406v-80h-404v-203q0 -95 -10 -180q247 176 453 176q267 0 270 -272v-594q0 -110 -46 -207t-126 -166l-72 57q58 72 85.5 146.5t27.5 169.5v561q0 98 -45 142t-146 44q-88 0 -176 -36t-217 -119v-543h-131v1024h-158z" />
<glyph unicode="&#x45c;" horiz-adv-x="1083" d="M174 0v991h129v-307q0 -52 -10 -117h164q31 0 58.5 5t52.5 16.5t45.5 23.5t41 34.5t36 40.5t33.5 50t30 54.5t30 62.5t28.5 65.5t29.5 71.5h135q-88 -210 -131 -283q-79 -135 -185 -173q-34 -13 -73 -17v-4q46 -4 85 -17.5t70.5 -35.5t59.5 -55.5t51.5 -71.5t48.5 -91 t47.5 -106.5t50.5 -123.5q3 -9 5 -13h-138q-91 217 -127 280q-67 121 -152 160q-53 24 -124 25h-170q8 -70 8 -105v-360h-129zM446 1188l336 299l78 -98l-364 -263z" />
<glyph unicode="&#x45d;" horiz-adv-x="1198" d="M174 0v991h117v-708q0 -82 -2 -127h4q37 68 67 106l558 729h106v-991h-119v713q0 37 4 123h-4q-21 -45 -65 -105l-559 -731h-107zM268 1389l76 98l338 -299l-49 -62z" />
<glyph unicode="&#x45e;" horiz-adv-x="1069" d="M47 991h139l293 -774q30 -79 41 -115h29l43 117l291 772h139l-418 -1061q-78 -203 -182 -282q-126 -93 -334 -64l12 88q154 -7 242 54q79 63 141 219l25 55h-33q-39 0 -51 35zM240 1434h104q0 -93 52 -144t143 -51q90 0 141 51t51 144h103q5 -118 -76 -194.5t-219 -76.5 q-139 0 -221.5 77t-77.5 194z" />
<glyph unicode="&#x45f;" horiz-adv-x="1175" d="M174 0v991h131v-885h567v885h129v-991h-356l-12 -340h-88l-15 340h-356z" />
<glyph unicode="&#x490;" horiz-adv-x="1064" d="M184 0v1169q0 107 68.5 176.5t173.5 69.5q325 0 485 -12l17 319h88v-329l-6 -93h-543q-148 0 -148 -153v-1147h-135z" />
<glyph unicode="&#x491;" horiz-adv-x="931" d="M170 0v786q0 102 53.5 155.5t155.5 53.5q266 0 397 -6l17 303h88v-309l-7 -94h-446q-67 0 -98 -32t-31 -101v-756h-129z" />
<glyph unicode="&#x4b0;" horiz-adv-x="1171" d="M45 1413h143l324 -627q15 -29 40 -84.5t30 -66.5h12q25 61 68 149l323 629h141l-446 -858h289v-84h-316v-471h-133v471h-317v84h293z" />
<glyph unicode="&#x4b1;" horiz-adv-x="1179" d="M49 991h144l321 -622q15 -28 40 -84.5t30 -67.5h14q42 104 68 150l321 624h143l-448 -854h291v-86h-316v-469h-133v469h-317v86h293z" />
<glyph unicode="&#x4b6;" horiz-adv-x="1312" d="M131 838v575h135v-549q-1 -115 51.5 -167t169.5 -52q121 0 222.5 29t234.5 102v637h133v-1317h164v-405h-92l-16 309h-189v664q-248 -138 -500 -138q-159 0 -236 77.5t-77 234.5z" />
<glyph unicode="&#x4b7;" horiz-adv-x="1110" d="M119 571v420h129v-381q0 -77 35 -111t112 -34q97 0 182 18.5t189 63.5v444h129v-885h127v-399h-86l-16 293h-154v442q-202 -86 -412 -86q-235 0 -235 215z" />
<glyph unicode="&#x4ba;" horiz-adv-x="1267" d="M190 0v1413h134v-663q122 70 252 103.5t245 33.5q316 0 316 -312v-575h-136v549q1 115 -51.5 167t-171.5 52t-222 -29t-232 -100v-639h-134z" />
<glyph unicode="&#x4c0;" horiz-adv-x="516" d="M190 0v1413h136v-1413h-136z" />
<glyph unicode="&#x2000;" horiz-adv-x="951" />
<glyph unicode="&#x2001;" horiz-adv-x="1903" />
<glyph unicode="&#x2002;" horiz-adv-x="951" />
<glyph unicode="&#x2003;" horiz-adv-x="1903" />
<glyph unicode="&#x2004;" horiz-adv-x="634" />
<glyph unicode="&#x2005;" horiz-adv-x="475" />
<glyph unicode="&#x2006;" horiz-adv-x="317" />
<glyph unicode="&#x2007;" horiz-adv-x="317" />
<glyph unicode="&#x2008;" horiz-adv-x="237" />
<glyph unicode="&#x2009;" horiz-adv-x="380" />
<glyph unicode="&#x200a;" horiz-adv-x="105" />
<glyph unicode="&#x2010;" horiz-adv-x="944" d="M158 465v102h628v-102h-628z" />
<glyph unicode="&#x2011;" horiz-adv-x="944" d="M158 465v102h628v-102h-628z" />
<glyph unicode="&#x2012;" horiz-adv-x="944" d="M158 465v102h628v-102h-628z" />
<glyph unicode="&#x2013;" horiz-adv-x="1234" d="M158 465v102h919v-102h-919z" />
<glyph unicode="&#x2014;" horiz-adv-x="1861" d="M158 465v102h1546v-102h-1546z" />
<glyph unicode="&#x2018;" horiz-adv-x="430" d="M147 1087v125q3 151 58 283l61 -18q-16 -104 -16 -230q17 0 26.5 -11t8.5 -30v-119q0 -49 -52 -49h-36q-27 0 -38.5 11t-11.5 38z" />
<glyph unicode="&#x2019;" horiz-adv-x="423" d="M143 1313v119q1 26 13.5 37.5t38.5 11.5h38q26 0 37 -11.5t11 -37.5v-125q-3 -153 -58 -285l-59 18q14 112 14 230q-17 0 -26.5 11.5t-8.5 31.5z" />
<glyph unicode="&#x201a;" horiz-adv-x="452" d="M156 43v119q2 26 13.5 37.5t39.5 11.5h39q27 0 38 -11t11 -38v-125q-3 -158 -59 -285l-62 19q17 136 17 229q-18 0 -28 11.5t-9 31.5z" />
<glyph unicode="&#x201c;" horiz-adv-x="714" d="M147 1087v125q3 151 58 283l61 -18q-16 -104 -16 -230q17 0 26.5 -11t8.5 -30v-119q0 -49 -52 -49h-36q-27 0 -38.5 11t-11.5 38zM432 1087v125q3 154 57 283l62 -18q-16 -104 -16 -230q17 0 26.5 -11t7.5 -30v-119q0 -49 -51 -49h-39q-26 0 -36.5 11t-10.5 38z" />
<glyph unicode="&#x201d;" horiz-adv-x="708" d="M143 1313v119q1 26 13.5 37.5t38.5 11.5h38q26 0 37 -11.5t11 -37.5v-125q-3 -153 -58 -285l-59 18q14 112 14 230q-17 0 -26.5 11.5t-8.5 31.5zM428 1313v119q2 26 13.5 37.5t37.5 11.5h39q26 0 36.5 -11t10.5 -38v-125q-3 -156 -57 -285l-59 18q14 112 14 230 q-17 0 -26.5 11.5t-8.5 31.5z" />
<glyph unicode="&#x201e;" horiz-adv-x="737" d="M158 43v119q0 26 11.5 37.5t37.5 11.5h39q27 0 38 -11t11 -38v-125q-3 -156 -57 -285l-62 19q17 136 17 229q-17 0 -26.5 11.5t-8.5 31.5zM442 43v119q0 26 12 37.5t38 11.5h38q28 0 39 -11.5t11 -37.5v-125q-3 -153 -58 -285l-61 19q16 128 16 229q-17 0 -26.5 11.5 t-8.5 31.5z" />
<glyph unicode="&#x2020;" horiz-adv-x="913" d="M96 874v117h271v-100zM395 1415h123l-6 -432v-1208h-111v1208zM547 891v100h270v-117z" />
<glyph unicode="&#x2021;" horiz-adv-x="989" d="M133 199v116l270 -16v-100h-270zM133 874v117h270v-100zM434 -225l4 426v788l-4 426h121l-6 -426v-788l6 -426h-121zM584 199v100l270 16v-116h-270zM584 891v100h270v-117z" />
<glyph unicode="&#x2022;" horiz-adv-x="735" d="M197 539v22q0 89 34.5 123.5t126.5 34.5h23q87 0 121.5 -35t34.5 -123v-22q0 -91 -34 -126.5t-122 -35.5h-23q-92 0 -126.5 35.5t-34.5 126.5z" />
<glyph unicode="&#x2026;" horiz-adv-x="1675" d="M150 51v117q0 28 11.5 39.5t39.5 11.5h43q28 0 39.5 -11.5t11.5 -39.5v-117q0 -28 -11.5 -39.5t-39.5 -11.5h-43q-28 0 -39.5 11.5t-11.5 39.5zM762 51v117q0 28 11.5 39.5t37.5 11.5h45q28 0 39.5 -11.5t11.5 -39.5v-117q0 -28 -11.5 -39.5t-39.5 -11.5h-45 q-26 0 -37.5 11.5t-11.5 39.5zM1374 51v117q0 28 11.5 39.5t37.5 11.5h45q28 0 40 -11.5t12 -39.5v-117q0 -28 -12 -39.5t-40 -11.5h-45q-26 0 -37.5 11.5t-11.5 39.5z" />
<glyph unicode="&#x202f;" horiz-adv-x="380" />
<glyph unicode="&#x2030;" horiz-adv-x="2576" d="M106 1020q0 225 72 321.5t250 96.5t250 -96.5t72 -321.5t-72 -321.5t-250 -96.5t-250 96.5t-72 321.5zM209 1020q0 -185 47.5 -259.5t169.5 -74.5q124 0 171.5 74.5t47.5 259.5q0 184 -47.5 259t-171.5 75q-122 0 -169.5 -75t-47.5 -259zM389 0l940 1413h98l-940 -1413 h-98zM1073 401q0 225 72.5 322.5t249.5 97.5t249 -97.5t72 -322.5t-71.5 -321t-249.5 -96t-250 96.5t-72 320.5zM1178 401q-2 -183 45.5 -258t169.5 -75q123 0 171 74.5t48 258.5t-48 259t-171 75q-122 0 -169.5 -75.5t-45.5 -258.5zM1825 401q0 225 71.5 322.5t247.5 97.5 q177 0 249.5 -97.5t72.5 -322.5q0 -224 -72 -320.5t-250 -96.5q-176 0 -247.5 96.5t-71.5 320.5zM1927 401q0 -184 47 -258.5t170 -74.5t171 74.5t48 258.5t-48 259t-171 75t-170 -75t-47 -259z" />
<glyph unicode="&#x2039;" horiz-adv-x="540" d="M63 498v32l330 406l68 -45l-275 -377l277 -383l-68 -45z" />
<glyph unicode="&#x203a;" horiz-adv-x="542" d="M76 131l276 383l-274 377l69 45l332 -406v-32l-334 -412z" />
<glyph unicode="&#x2044;" horiz-adv-x="327" d="M-356 0l940 1413h98l-940 -1413h-98z" />
<glyph unicode="&#x205f;" horiz-adv-x="475" />
<glyph unicode="&#x20ac;" horiz-adv-x="1314" d="M119 545v86h178v76q0 75 2 112h-178v86h184q30 270 158 401.5t383 131.5q194 0 336 -39l-19 -103q-169 26 -323 21q-181 -4 -274 -104.5t-120 -307.5h547l-14 -86h-539q-4 -74 -4 -114l2 -74h465l-16 -86h-445q21 -226 114.5 -336t283.5 -113q191 -3 346 25l16 -103 q-153 -43 -356 -43q-264 0 -391.5 140.5t-151.5 429.5h-184z" />
<glyph unicode="&#x2122;" horiz-adv-x="1961" d="M145 1343v82h654v-82h-279v-696h-98v696h-277zM907 647l33 737q3 41 39 41h108q29 0 39 -32l181 -484q6 -18 16 -54.5t16 -53.5h27q28 86 37 110l176 482q8 32 41 32h109q37 0 40 -41l31 -737h-90l-33 703h-26l-215 -586q-9 -31 -41 -31h-82q-35 0 -41 31l-215 586h-27 l-33 -703h-90z" />
<glyph unicode="&#x2202;" horiz-adv-x="1167" d="M123 457q9 210 118 333.5t304 122.5q228 0 354 -182q6 126 -3 217t-38 160t-74.5 112.5t-119 70t-164.5 37t-219 9.5v101q144 1 247 -9.5t195.5 -40t150.5 -82.5t98.5 -136t54 -202t3.5 -280q-7 -110 -20 -197.5t-36.5 -171.5t-59.5 -144.5t-86 -106.5t-120.5 -69.5 t-158.5 -23.5q-97 0 -173.5 26.5t-125 71.5t-79 107.5t-41.5 131t-7 145.5zM252 457q-3 -78 12 -142.5t49.5 -115t95 -79t142.5 -28.5q76 0 133 29.5t93 77t60.5 123t36 151t19.5 176.5q-137 154 -326 154q-147 0 -228 -92.5t-87 -253.5z" />
<glyph unicode="&#x220f;" horiz-adv-x="1484" d="M84 1303v110h1317v-110h-227v-1520h-130v1520h-604v-1520h-131v1520h-225z" />
<glyph unicode="&#x2211;" horiz-adv-x="1202" d="M106 -94l383 817l-358 580v110h938v-110h-790l356 -580l-385 -817h840v-111h-984v111z" />
<glyph unicode="&#x221a;" horiz-adv-x="1146" d="M80 991h113l233 -899h27l522 1702h115l-547 -1778q-6 -16 -27 -16h-151q-24 0 -27 16z" />
<glyph unicode="&#x221e;" horiz-adv-x="1605" d="M135 639q0 132 79 200t206 68q119 0 211.5 -56.5t173.5 -154.5q192 211 393 211q119 0 195.5 -68t76.5 -200q0 -138 -83 -214.5t-213 -76.5q-61 0 -117 17.5t-102 49.5t-79.5 63.5t-68.5 72.5q-86 -93 -177 -148t-202 -55q-126 0 -209.5 77t-83.5 214zM250 635 q0 -92 53 -140.5t148 -48.5q90 0 155.5 44.5t141.5 134.5q-74 92 -142.5 138t-169.5 46q-186 0 -186 -174zM866 621q125 -175 293 -175q92 0 145.5 49t53.5 142q0 87 -48.5 129.5t-131.5 42.5q-52 0 -98.5 -15.5t-86 -46t-66.5 -58t-61 -68.5z" />
<glyph unicode="&#x222b;" horiz-adv-x="772" d="M76 -446l10 94h131q88 0 124 43t30 147l-88 1352q-15 272 227 272q105 0 186 -8l-10 -94h-133q-86 0 -122 -42.5t-30 -146.5l88 -1353q8 -138 -47 -205.5t-184 -67.5q-118 0 -182 9z" />
<glyph unicode="&#x2248;" horiz-adv-x="1206" d="M164 291q-11 121 38.5 173.5t145.5 49.5q78 -1 252 -62t256 -63q52 -2 74 22t22 93h92q9 -111 -36.5 -164.5t-151.5 -52.5q-71 1 -165.5 32t-185.5 62t-153 33q-53 0 -75.5 -25t-22.5 -98h-90zM164 682q-11 120 38.5 172.5t145.5 50.5q78 -1 252 -62t256 -63 q52 -2 74 21.5t22 93.5h92q9 -111 -36.5 -164.5t-151.5 -52.5q-71 0 -165 31t-185.5 62.5t-153.5 33.5q-52 0 -75 -25.5t-23 -97.5h-90z" />
<glyph unicode="&#x2260;" horiz-adv-x="1259" d="M213 332v100h276l203 332h-479v100h541l133 221l49 -24l-119 -197h277v-100h-338l-201 -332h539v-100h-600l-154 -254l-49 24l139 230h-217z" />
<glyph unicode="&#x2264;" horiz-adv-x="1177" d="M154 180v99h870v-99h-870zM176 674v106l825 297v-106l-708 -244l708 -217v-107z" />
<glyph unicode="&#x2265;" horiz-adv-x="1177" d="M154 180v99h870v-99h-870zM176 403v105l709 219l-709 244v106l825 -297v-106z" />
<glyph unicode="&#x25ca;" horiz-adv-x="1191" d="M84 692q-8 16 0 33l498 692q6 9 15 9t15 -9l496 -692q11 -17 0 -33l-496 -696q-6 -9 -15 -9t-15 9zM195 709l403 -582l399 582l-399 577z" />
<glyph unicode="&#x25fc;" horiz-adv-x="993" d="M0 0v993h993v-993h-993z" />
<glyph unicode="&#xfb03;" horiz-adv-x="1845" d="M63 889v92l170 10v158q0 141 67 214t210 73q134 0 248 -13l-8 -96h-195q-107 0 -150 -41t-43 -149v-146h527v176q0 150 64.5 224.5t213.5 74.5q136 0 244 -12v-96h-199q-106 0 -149 -45.5t-43 -157.5v-164h647v-991h-129v887h-518v-887h-131v887h-527v-887h-129v889h-170 zM1530 1247v119q0 43 43 43h59q43 0 43 -43v-119q0 -43 -43 -43h-59q-43 0 -43 43z" />
<glyph unicode="&#xfb04;" horiz-adv-x="1988" d="M63 889v92l179 10v158q0 287 278 287q134 0 248 -13l-8 -96h-195q-107 0 -149.5 -41t-42.5 -149v-146h526v176q0 150 65 224.5t214 74.5q382 0 526 -20v-1213q0 -71 37 -108t108 -37h105l14 -84q-58 -20 -164 -20q-107 0 -169 59.5t-62 165.5v1149h-350q-107 1 -150 -44 t-43 -159v-164h324v-102h-324v-889h-131v889h-526v-889h-131v889h-179z" />
</font>
</defs>
</svg>
